<?xml version="1.0" encoding="UTF-8"?>
<svg version="1.1" xmlns="http://www.w3.org/2000/svg" width="232" height="256">
<path d="M0 0 C4.95 0 9.9 0 15 0 C16.32 2.97 17.64 5.94 19 9 C19.66 8.67 20.32 8.34 21 8 C25.44249756 7.46759852 28.9610943 7.48054715 33 9.5 C35.70586566 12.88233208 36.15294447 15.79402719 36 20 C35.59744159 22.92446847 35.08015297 25.79106069 34.47265625 28.6796875 C33.93346517 30.93196483 33.93346517 30.93196483 34 33 C35.051875 32.896875 36.10375 32.79375 37.1875 32.6875 C41 33 41 33 43.875 35.0625 C46.41733802 38.57690844 47 40.67500571 47 45 C45.40334559 48.69751547 43.42827647 50.89879829 40 53 C39.34 53 38.68 53 38 53 C38.14622803 53.62455078 38.29245605 54.24910156 38.44311523 54.89257812 C39.11212625 57.76075387 39.77485134 60.63034794 40.4375 63.5 C40.66759766 64.48226562 40.89769531 65.46453125 41.13476562 66.4765625 C42.13297287 70.81659401 43.07082503 75.07488375 43.53125 79.5078125 C44.01728963 83.12880772 45.21186096 85.03253694 47.13671875 88.0703125 C48.81093562 91.81267962 48.60110048 96.00198285 48 100 C47.34 100.99 46.68 101.98 46 103 C45.70086113 104.94319955 45.70086113 104.94319955 45.74603271 107.08744812 C45.74039307 107.91827911 45.73475342 108.74911011 45.72894287 109.6051178 C45.73299133 110.51361984 45.73703979 111.42212189 45.74121094 112.3581543 C45.7377063 113.31800232 45.73420166 114.27785034 45.73059082 115.26678467 C45.72176297 118.45266889 45.72763243 121.6383321 45.734375 124.82421875 C45.73302722 127.04604637 45.73108574 129.2678737 45.72857666 131.48970032 C45.7256228 136.15958447 45.72992619 140.82939229 45.73925781 145.49926758 C45.75056646 151.44458816 45.74414951 157.38972644 45.73211288 163.33504009 C45.72482752 167.93283925 45.72721407 172.53059645 45.73236847 177.12839699 C45.73369109 179.31734044 45.73210663 181.50628786 45.72740936 183.69522667 C45.70686521 195.97705901 46.09474773 207.85394372 48 220 C48.2387363 221.70678639 48.47616529 223.41375757 48.7109375 225.12109375 C48.92980521 226.56027617 49.15104167 227.99910097 49.375 229.4375 C49.47554688 230.12908203 49.57609375 230.82066406 49.6796875 231.53320312 C50.97038697 239.84208098 53.05628553 247.73921349 55 256 C29.26 256 3.52 256 -23 256 C-21.35 247.09 -19.7 238.18 -18 229 C-17.1550655 223.2381522 -17.1550655 223.2381522 -16.79467773 217.53344727 C-16.77473251 216.7331459 -16.75478729 215.93284454 -16.73423767 215.10829163 C-16.70916893 213.85005836 -16.70916893 213.85005836 -16.68359375 212.56640625 C-16.66281265 211.68846909 -16.64203156 210.81053192 -16.62062073 209.9059906 C-16.55568055 207.12490015 -16.49650073 204.34372215 -16.4375 201.5625 C-16.39426186 199.66730896 -16.35064595 197.7721265 -16.30664062 195.87695312 C-16.20005678 191.25138987 -16.09863592 186.62573929 -16 182 C-16.60010895 181.80591553 -17.2002179 181.61183105 -17.81851196 181.41186523 C-19.01363907 181.02043335 -19.01363907 181.02043335 -20.23291016 180.62109375 C-21.0186441 180.36513428 -21.80437805 180.1091748 -22.61392212 179.84545898 C-26.3500684 178.52163026 -29.84653967 176.79458977 -33.375 175 C-34.07238281 174.65710938 -34.76976563 174.31421875 -35.48828125 173.9609375 C-38.78534624 172.3029125 -41.61764086 170.84033737 -44 168 C-45.12922214 163.30938497 -45.42470465 160.21687765 -43 156 C-37.9970545 148.8735021 -30.80555935 143.37217699 -23.734375 138.41015625 C-21.87089026 137.04284326 -20.39638236 135.84174018 -19 134 C-18.55727137 130.62419423 -18.6367964 128.33160831 -19 125 C-19.15693737 122.8488484 -19.29233118 120.69716143 -19.421875 118.54418945 C-19.51419037 117.03813463 -19.61672775 115.53266457 -19.73046875 114.02807617 C-19.9467827 110.9132265 -20.05290587 108.22665001 -19.33984375 105.171875 C-19.17162109 104.09679687 -19.17162109 104.09679687 -19 103 C-20.39970439 101.42840304 -20.39970439 101.42840304 -22 100 C-23.07232043 94.48070366 -22.06172664 89.71034867 -19 85 C-18.01 84.505 -18.01 84.505 -17 84 C-16.46980348 81.98810508 -16.46980348 81.98810508 -16.21875 79.5546875 C-16.09886719 78.64203125 -15.97898437 77.729375 -15.85546875 76.7890625 C-15.73816406 75.82742187 -15.62085937 74.86578125 -15.5 73.875 C-14.72975029 67.7130023 -13.73670275 61.97630065 -12 56 C-11.05683892 47.47864927 -12.57350326 40.34026271 -15.09375 32.23046875 C-16.70714225 26.47928172 -17.06219477 21.59027354 -14.4375 16.125 C-12 13 -12 13 -8.5625 11.6875 C-3.17446975 9.13527514 -2.30950848 5.38885313 0 0 Z " fill="#2D2E2E" transform="translate(104,0)"/>
<path d="M0 0 C4.95 0 9.9 0 15 0 C16.32 2.97 17.64 5.94 19 9 C19.66 8.67 20.32 8.34 21 8 C25.44249756 7.46759852 28.9610943 7.48054715 33 9.5 C35.70586566 12.88233208 36.15294447 15.79402719 36 20 C35.59744159 22.92446847 35.08015297 25.79106069 34.47265625 28.6796875 C33.93346517 30.93196483 33.93346517 30.93196483 34 33 C35.051875 32.896875 36.10375 32.79375 37.1875 32.6875 C41 33 41 33 43.875 35.0625 C46.41733802 38.57690844 47 40.67500571 47 45 C45.40334559 48.69751547 43.42827647 50.89879829 40 53 C39.34 53 38.68 53 38 53 C38.14622803 53.62455078 38.29245605 54.24910156 38.44311523 54.89257812 C39.11212625 57.76075387 39.77485134 60.63034794 40.4375 63.5 C40.66759766 64.48226562 40.89769531 65.46453125 41.13476562 66.4765625 C42.13297287 70.81659401 43.07082503 75.07488375 43.53125 79.5078125 C44.01728963 83.12880772 45.21186096 85.03253694 47.13671875 88.0703125 C48.81093562 91.81267962 48.60110048 96.00198285 48 100 C47.34 100.99 46.68 101.98 46 103 C45.70537568 105.12551095 45.70537568 105.12551095 45.75949097 107.49882507 C45.75674164 108.42009186 45.75399231 109.34135864 45.75115967 110.2905426 C45.75835022 111.29898727 45.76554077 112.30743195 45.77294922 113.34643555 C45.77265717 114.41001282 45.77236511 115.47359009 45.77206421 116.56939697 C45.77345978 120.09191998 45.78903183 123.6142326 45.8046875 127.13671875 C45.80841682 129.57623682 45.81126417 132.01575639 45.81326294 134.45527649 C45.82090577 140.88164391 45.8405599 147.30792117 45.8626709 153.73425293 C45.8831153 160.28961976 45.89226165 166.84500112 45.90234375 173.40039062 C45.92380512 186.26696558 45.95756547 199.133478 46 212 C45.67 212 45.34 212 45 212 C43.17322751 203.57936649 42.56410671 195.35037486 42.3125 186.75 C42.24192383 184.90921875 42.24192383 184.90921875 42.16992188 183.03125 C41.86627627 173.83228152 41.86627627 173.83228152 42.48852539 169.95947266 C43.25152904 164.05284109 43.14227165 158.17599212 43.1328125 152.2265625 C43.13376923 150.90707611 43.13472595 149.58758972 43.13571167 148.2281189 C43.13717906 145.44943051 43.135063 142.67077445 43.13037109 139.89208984 C43.12464088 136.32421141 43.12797949 132.75640765 43.13394356 129.18853188 C43.13841155 125.78453597 43.13529144 122.38056053 43.1328125 118.9765625 C43.13483673 117.69125641 43.13686096 116.40595032 43.13894653 115.08169556 C43.13579437 113.90311981 43.13264221 112.72454407 43.12939453 111.51025391 C43.12859894 110.4676944 43.12780334 109.42513489 43.12698364 108.35098267 C43.26475737 106.04211064 43.26475737 106.04211064 42 105 C41.95919217 103.00041636 41.95745644 100.99954746 42 99 C43.32 99.66 44.64 100.32 46 101 C46 100.34 46 99.68 46 99 C45.01 98.67 44.02 98.34 43 98 C42.67 97.34 42.34 96.68 42 96 C39.34314485 94.92793564 36.70190009 93.94307158 34 93 C32.04616544 92.28242403 30.09790811 91.55219972 28.15234375 90.8125 C26.56684719 90.21398224 24.97461117 89.63324394 23.37890625 89.0625 C22.49074219 88.7325 21.60257813 88.4025 20.6875 88.0625 C19.86636719 87.76472656 19.04523438 87.46695313 18.19921875 87.16015625 C15.60968666 85.79409758 14.47415785 84.5141786 13 82 C13 81.01 13 80.02 13 79 C14.98 79 16.96 79 19 79 C18.690625 77.948125 18.38125 76.89625 18.0625 75.8125 C17 72 17 72 16.5 69.3125 C16.10523072 66.97930622 16.10523072 66.97930622 14.9375 65 C13.78911037 62.55010213 13.85146574 60.67361665 14 58 C13.34 58 12.68 58 12 58 C11.7525 57.0925 11.505 56.185 11.25 55.25 C10.26050698 51.9814595 10.26050698 51.9814595 8.05078125 50.15234375 C5.65304634 47.63586387 4.95537981 45.61289817 3.9375 42.3125 C3.10577454 39.42465571 3.10577454 39.42465571 2 37 C1.01 36.67 0.02 36.34 -1 36 C-1.19491452 34.54263913 -1.38069358 33.08405407 -1.5625 31.625 C-1.66691406 30.81289063 -1.77132812 30.00078125 -1.87890625 29.1640625 C-2 27 -2 27 -1 25 C-1.66 25 -2.32 25 -3 25 C-3.12375 24.030625 -3.2475 23.06125 -3.375 22.0625 C-3.58125 21.051875 -3.7875 20.04125 -4 19 C-4.66 18.67 -5.32 18.34 -6 18 C-6.66 17.01 -7.32 16.02 -8 15 C-9.32 15 -10.64 15 -12 15 C-12 14.34 -12 13.68 -12 13 C-10.948125 12.71125 -9.89625 12.4225 -8.8125 12.125 C-3.4517678 9.91315318 -2.17136473 5.0665177 0 0 Z " fill="#D55453" transform="translate(104,0)"/>
<path d="M0 0 C6.81814324 2.90740222 10.17169286 7.05476407 13.125 13.73046875 C16.72463343 23.06701795 15.52353162 32.71657013 12.33203125 42.04296875 C9.76215599 47.7479411 6.1567524 51.45276458 1.125 55.0625 C-4.4268995 56.72806985 -9.48417425 55.37895644 -15 54 C-15 59.94 -15 65.88 -15 72 C-15.33 72 -15.66 72 -16 72 C-16 65.73 -16 59.46 -16 53 C-18.97 52.01 -21.94 51.02 -25 50 C-27.83640777 48.71402353 -30.60432238 47.40917829 -33.375 46 C-34.07238281 45.65710938 -34.76976563 45.31421875 -35.48828125 44.9609375 C-38.78534624 43.3029125 -41.61764086 41.84033737 -44 39 C-45.12922214 34.30938497 -45.42470465 31.21687765 -43 27 C-39.08954069 21.42970544 -33.97626488 17.35672146 -28.68359375 13.1484375 C-26.43092334 11.34498958 -24.27177513 9.48849081 -22.125 7.5625 C-19.54788151 5.33430254 -17.26081911 4.0869397 -14 3 C-12.6078125 2.195625 -12.6078125 2.195625 -11.1875 1.375 C-7.28600742 -0.3079968 -4.13137042 -0.89387833 0 0 Z " fill="#D46837" transform="translate(104,129)"/>
<path d="M0 0 C0 1.32 0 2.64 0 4 C0.99 4.33 1.98 4.66 3 5 C3 6.98 3 8.96 3 11 C3.66 11 4.32 11 5 11 C5 14.63 5 18.26 5 22 C6.32 22.33 7.64 22.66 9 23 C10.08984375 25.328125 10.08984375 25.328125 10.9375 28.25 C12.50511502 33.0840001 14.28552634 35.49188599 18 39 C18.3125 41.8125 18.3125 41.8125 18 44 C18.66 44 19.32 44 20 44 C25.32407407 59.65277778 25.32407407 59.65277778 25 65 C23.02 65 21.04 65 19 65 C20.05432156 68.31358205 21.03232987 70.4659307 24.14453125 72.18359375 C26.7408796 73.20857305 29.34851866 74.1279051 32 75 C39.87956565 77.75913129 39.87956565 77.75913129 41 80 C40.12601563 79.9278125 39.25203125 79.855625 38.3515625 79.78125 C30.95701956 79.22317129 23.60436149 78.89297664 16.1875 78.875 C15.4052002 78.87048828 14.62290039 78.86597656 13.81689453 78.86132812 C9.77774562 78.78218926 9.77774562 78.78218926 6 80 C2.43344514 80.4861475 -1.13841739 80.89785513 -4.71484375 81.3046875 C-7.99939373 81.99987168 -9.08005814 82.34518384 -11 85 C-12.17574711 87.09989652 -12.17574711 87.09989652 -13 89 C-14.94734511 87.37721241 -15.90721805 86.47755414 -16.3984375 83.94921875 C-16.34615957 78.90439842 -15.83179486 75.35660748 -13 71 C-12.01 70.505 -12.01 70.505 -11 70 C-10.46980348 67.98810508 -10.46980348 67.98810508 -10.21875 65.5546875 C-10.03892578 64.18570313 -10.03892578 64.18570313 -9.85546875 62.7890625 C-9.73816406 61.82742187 -9.62085937 60.86578125 -9.5 59.875 C-8.72975029 53.7130023 -7.73670275 47.97630065 -6 42 C-5.05727344 33.48257516 -6.56478223 26.34167537 -9.09765625 18.23828125 C-10.60680166 12.82234383 -10.9951523 8.27463382 -8.6875 3 C-6.02491523 -0.15565603 -4.07689761 0 0 0 Z " fill="#802729" transform="translate(98,14)"/>
<path d="M0 0 C4.95 0 9.9 0 15 0 C16.13764351 4.26616316 17 7.56486311 17 12 C18.98 11.34 20.96 10.68 23 10 C23.09471858 19.0719352 23.14516104 27.98185679 22 37 C20.68 37 19.36 37 18 37 C18 36.34 18 35.68 18 35 C16.68 34.67 15.36 34.34 14 34 C13.67 35.32 13.34 36.64 13 38 C12.34 38 11.68 38 11 38 C10.67 37.01 10.34 36.02 10 35 C7.89415562 34.19436362 7.89415562 34.19436362 5.4375 33.8125 C4.19806641 33.57466797 4.19806641 33.57466797 2.93359375 33.33203125 C2.29550781 33.22246094 1.65742187 33.11289062 1 33 C1 33.99 1 34.98 1 36 C0.34 36 -0.32 36 -1 36 C-1.19491452 34.54263913 -1.38069358 33.08405407 -1.5625 31.625 C-1.66691406 30.81289063 -1.77132812 30.00078125 -1.87890625 29.1640625 C-2 27 -2 27 -1 25 C-1.66 25 -2.32 25 -3 25 C-3.12375 24.030625 -3.2475 23.06125 -3.375 22.0625 C-3.58125 21.051875 -3.7875 20.04125 -4 19 C-4.66 18.67 -5.32 18.34 -6 18 C-6.66 17.01 -7.32 16.02 -8 15 C-9.32 15 -10.64 15 -12 15 C-12 14.34 -12 13.68 -12 13 C-10.948125 12.71125 -9.89625 12.4225 -8.8125 12.125 C-3.4517678 9.91315318 -2.17136473 5.0665177 0 0 Z " fill="#C64645" transform="translate(104,0)"/>
<path d="M0 0 C1.1446875 0.0928125 1.1446875 0.0928125 2.3125 0.1875 C2.6425 3.1575 2.9725 6.1275 3.3125 9.1875 C3.9725 9.1875 4.6325 9.1875 5.3125 9.1875 C5.9375 11.0625 5.9375 11.0625 6.3125 13.1875 C5.6525 13.8475 4.9925 14.5075 4.3125 15.1875 C4.3125 16.1775 4.3125 17.1675 4.3125 18.1875 C4.9725 18.1875 5.6325 18.1875 6.3125 18.1875 C6.6425 17.5275 6.9725 16.8675 7.3125 16.1875 C6.9825 19.4875 6.6525 22.7875 6.3125 26.1875 C7.6325 25.5275 8.9525 24.8675 10.3125 24.1875 C10.7083132 28.67338289 9.32774298 31.24463329 7.3125 35.1875 C7.6425 35.8475 7.9725 36.5075 8.3125 37.1875 C8.3125 38.1775 8.3125 39.1675 8.3125 40.1875 C9.3025 40.1875 10.2925 40.1875 11.3125 40.1875 C11.9725 43.1575 12.6325 46.1275 13.3125 49.1875 C6.3825 49.1875 -0.5475 49.1875 -7.6875 49.1875 C-7.0275 44.2375 -6.3675 39.2875 -5.6875 34.1875 C-7.6675 34.6825 -7.6675 34.6825 -9.6875 35.1875 C-11.2595124 32.04347519 -10.87196744 28.69802603 -10.875 25.25 C-10.88724609 24.52103516 -10.89949219 23.79207031 -10.91210938 23.04101562 C-10.92262685 19.2161609 -10.85845624 17.44393436 -8.6875 14.1875 C-8.9996764 11.54117713 -8.9996764 11.54117713 -9.6875 9.1875 C-9.0275 9.1875 -8.3675 9.1875 -7.6875 9.1875 C-7.6875 7.2075 -7.6875 5.2275 -7.6875 3.1875 C-7.0275 3.1875 -6.3675 3.1875 -5.6875 3.1875 C-5.254375 2.6925 -4.82125 2.1975 -4.375 1.6875 C-2.6875 0.1875 -2.6875 0.1875 0 0 Z " fill="#686761" transform="translate(132.6875,206.8125)"/>
<path d="M0 0 C1.31223496 3.93670488 0.24296256 6.12488144 -1 10 C-0.01 10.33 0.98 10.66 2 11 C2 11.66 2 12.32 2 13 C4.31 13.33 6.62 13.66 9 14 C9 14.66 9 15.32 9 16 C10.258125 15.814375 11.51625 15.62875 12.8125 15.4375 C15.82744268 14.99267239 17.00468461 15.00156154 20 16 C20 16.66 20 17.32 20 18 C20.99 17.67 21.98 17.34 23 17 C23.66 17.66 24.32 18.32 25 19 C27.00868304 19.20534422 27.00868304 19.20534422 29.25 19.0625 C32.96280179 18.97252904 36.34615976 19.25049431 40 20 C40 20.66 40 21.32 40 22 C40.66 21.67 41.32 21.34 42 21 C44.3329866 20.95977609 46.66706666 20.95679753 49 21 C45.63522619 26.4833351 42.02867819 30.52868523 36 33 C33.78125 33.01171875 33.78125 33.01171875 31.5 32.6875 C30.7471875 32.58824219 29.994375 32.48898438 29.21875 32.38671875 C27.12646418 32.02204217 25.06041662 31.51510416 23 31 C23 36.94 23 42.88 23 49 C22.67 49 22.34 49 22 49 C22 42.73 22 36.46 22 30 C19.03 29.01 16.06 28.02 13 27 C10.16359223 25.71402353 7.39567762 24.40917829 4.625 23 C3.92761719 22.65710938 3.23023437 22.31421875 2.51171875 21.9609375 C-2.303768 19.53932996 -5.2773803 18.00727694 -7.125 12.875 C-6.93987391 7.13609111 -3.75254017 4.12685839 0 0 Z " fill="#9B4923" transform="translate(66,152)"/>
<path d="M0 0 C2.32650593 3.4897589 2.43992419 5.61234026 2.875 9.75 C3.57260365 15.58375958 3.57260365 15.58375958 6.125 20.75 C8.64118587 25.11138885 8.74329668 29.05621278 8 34 C7.34 34.99 6.68 35.98 6 37 C5.70537568 39.12551095 5.70537568 39.12551095 5.75949097 41.49882507 C5.75674164 42.42009186 5.75399231 43.34135864 5.75115967 44.2905426 C5.75835022 45.29898727 5.76554077 46.30743195 5.77294922 47.34643555 C5.77265717 48.41001282 5.77236511 49.47359009 5.77206421 50.56939697 C5.77345978 54.09191998 5.78903183 57.6142326 5.8046875 61.13671875 C5.80841682 63.57623682 5.81126417 66.01575639 5.81326294 68.45527649 C5.82090577 74.88164391 5.8405599 81.30792117 5.8626709 87.73425293 C5.8831153 94.28961976 5.89226165 100.84500112 5.90234375 107.40039062 C5.92380512 120.26696558 5.95756547 133.133478 6 146 C5.67 146 5.34 146 5 146 C3.17322751 137.57936649 2.56410671 129.35037486 2.3125 120.75 C2.26544922 119.5228125 2.21839844 118.295625 2.16992188 117.03125 C1.86627627 107.83228152 1.86627627 107.83228152 2.48852539 103.95947266 C3.25152904 98.05284109 3.14227165 92.17599212 3.1328125 86.2265625 C3.13376923 84.90707611 3.13472595 83.58758972 3.13571167 82.2281189 C3.13717906 79.44943051 3.135063 76.67077445 3.13037109 73.89208984 C3.12464088 70.32421141 3.12797949 66.75640765 3.13394356 63.18853188 C3.13841155 59.78453597 3.13529144 56.38056053 3.1328125 52.9765625 C3.13483673 51.69125641 3.13686096 50.40595032 3.13894653 49.08169556 C3.13579437 47.90311981 3.13264221 46.72454407 3.12939453 45.51025391 C3.12859894 44.4676944 3.12780334 43.42513489 3.12698364 42.35098267 C3.26475737 40.04211064 3.26475737 40.04211064 2 39 C1.95919217 37.00041636 1.95745644 34.99954746 2 33 C3.32 33.66 4.64 34.32 6 35 C6 34.34 6 33.68 6 33 C5.01 32.67 4.02 32.34 3 32 C2.67 31.34 2.34 30.68 2 30 C-0.65685515 28.92793564 -3.29809991 27.94307158 -6 27 C-7.95383456 26.28242403 -9.90209189 25.55219972 -11.84765625 24.8125 C-13.43315281 24.21398224 -15.02538883 23.63324394 -16.62109375 23.0625 C-17.50925781 22.7325 -18.39742187 22.4025 -19.3125 22.0625 C-20.13363281 21.76472656 -20.95476562 21.46695313 -21.80078125 21.16015625 C-24.39031334 19.79409758 -25.52584215 18.5141786 -27 16 C-27 15.01 -27 14.02 -27 13 C-25.02 13 -23.04 13 -21 13 C-21.37125 11.906875 -21.7425 10.81375 -22.125 9.6875 C-22.41375 8.470625 -22.7025 7.25375 -23 6 C-22.34 5.01 -21.68 4.02 -21 3 C-18.86413322 6.20380017 -18.76867825 7.01939967 -18.875 10.6875 C-18.89304687 11.49574219 -18.91109375 12.30398437 -18.9296875 13.13671875 C-18.96449219 14.05904297 -18.96449219 14.05904297 -19 15 C-20.32 15 -21.64 15 -23 15 C-22.67 15.99 -22.34 16.98 -22 18 C-18.97717357 19.03547047 -18.97717357 19.03547047 -15.4375 19.6875 C-14.23996094 19.93886719 -13.04242188 20.19023438 -11.80859375 20.44921875 C-10.88175781 20.63097656 -9.95492187 20.81273438 -9 21 C-9 21.66 -9 22.32 -9 23 C-6.69 23.66 -4.38 24.32 -2 25 C-1.34 23.35 -0.68 21.7 0 20 C0.99 20 1.98 20 3 20 C2.34 19.01 1.68 18.02 1 17 C0.68115234 15.09887695 0.68115234 15.09887695 0.5859375 12.98828125 C0.54726562 12.23095703 0.50859375 11.47363281 0.46875 10.69335938 C0.4378125 9.90767578 0.406875 9.12199219 0.375 8.3125 C0.33632812 7.51521484 0.29765625 6.71792969 0.2578125 5.89648438 C0.16367506 3.93136525 0.08075368 1.9657146 0 0 Z " fill="#D74949" transform="translate(144,66)"/>
<path d="M0 0 C0.66 0 1.32 0 2 0 C2 2.64 2 5.28 2 8 C1.40058594 8.10570312 0.80117187 8.21140625 0.18359375 8.3203125 C-2.30968729 9.0963964 -3.21160798 9.95309254 -4.9375 11.875 C-7.41320276 14.47573825 -9.73445644 16.41135719 -13 18 C-13.99 18 -14.98 18 -16 18 C-19.69381195 18.29161673 -20.8167785 18.8167785 -23.5 21.5 C-26.17724199 24.17724199 -27.34590924 24.59398992 -31 25 C-31.33 25.33 -31.66 25.66 -32 26 C-33.99958364 26.04080783 -36.00045254 26.04254356 -38 26 C-37.8125 23.6875 -37.8125 23.6875 -37 21 C-34.8125 19.4375 -34.8125 19.4375 -32 18 C-27.40315523 15.12988146 -27.40315523 15.12988146 -24 11 C-20.95092353 9.00232921 -18.60302803 8.79983178 -15 9 C-15 8.01 -15 7.02 -15 6 C-11.19858881 3.25453636 -7.82872343 2.34022762 -3.3125 1.5 C-1.04844958 1.22901669 -1.04844958 1.22901669 0 0 Z " fill="#F59067" transform="translate(104,136)"/>
<path d="M0 0 C1.32 0.66 2.64 1.32 4 2 C4.62867565 10.71414306 2.91691481 17.80919903 0 26 C0.74636719 25.67257813 1.49273437 25.34515625 2.26171875 25.0078125 C5.61960486 23.77195713 8.45005348 23.86078641 12 24 C11.67 25.32 11.34 26.64 11 28 C12.32 28.33 13.64 28.66 15 29 C14.92303847 32.23238414 14.62561345 34.33227795 12.375 36.734375 C10.62229929 38.21851673 8.84920638 39.63844334 7 41 C6.87625 40.236875 6.7525 39.47375 6.625 38.6875 C6.11897208 35.79732864 6.11897208 35.79732864 4 33 C3.01 32.67 2.02 32.34 1 32 C0.67 33.32 0.34 34.64 0 36 C-1.98046875 34.625 -1.98046875 34.625 -4 32 C-4.54024323 28.65948333 -4.42096131 25.37435177 -4.3125 22 C-4.30283203 21.09765625 -4.29316406 20.1953125 -4.28320312 19.265625 C-4.21643756 15.34097116 -4.07543333 11.7929727 -3 8 C-2.34 8 -1.68 8 -1 8 C-0.67 5.36 -0.34 2.72 0 0 Z " fill="#D04949" transform="translate(134,11)"/>
<path d="M0 0 C11.18842453 -0.45205756 20.45074289 -0.17497101 31 4 C31.33 3.01 31.66 2.02 32 1 C32.66 1.33 33.32 1.66 34 2 C26.49123905 11.35262829 26.49123905 11.35262829 21 13 C16.494979 12.96062045 12.36074457 12.09018614 8 11 C8 16.94 8 22.88 8 29 C7.67 29 7.34 29 7 29 C7 22.73 7 16.46 7 10 C4.525 9.01 4.525 9.01 2 8 C2 6.68 2 5.36 2 4 C0.68 4 -0.64 4 -2 4 C-1.34 2.68 -0.68 1.36 0 0 Z " fill="#8B4425" transform="translate(81,172)"/>
<path d="M0 0 C1.1446875 0.0928125 1.1446875 0.0928125 2.3125 0.1875 C2.6425 3.1575 2.9725 6.1275 3.3125 9.1875 C3.9725 9.1875 4.6325 9.1875 5.3125 9.1875 C5.9375 11.0625 5.9375 11.0625 6.3125 13.1875 C5.6525 13.8475 4.9925 14.5075 4.3125 15.1875 C4.3125 16.1775 4.3125 17.1675 4.3125 18.1875 C4.9725 18.1875 5.6325 18.1875 6.3125 18.1875 C6.6425 17.5275 6.9725 16.8675 7.3125 16.1875 C6.9825 19.8175 6.6525 23.4475 6.3125 27.1875 C5.6525 27.1875 4.9925 27.1875 4.3125 27.1875 C4.3125 26.1975 4.3125 25.2075 4.3125 24.1875 C3.3225 24.1875 2.3325 24.1875 1.3125 24.1875 C1.6425 21.8775 1.9725 19.5675 2.3125 17.1875 C-0.45026177 17.71018466 -3.0135876 18.29619587 -5.6875 19.1875 C-6.0175 24.1375 -6.3475 29.0875 -6.6875 34.1875 C-8.1725 34.6825 -8.1725 34.6825 -9.6875 35.1875 C-11.2595124 32.04347519 -10.87196744 28.69802603 -10.875 25.25 C-10.88724609 24.52103516 -10.89949219 23.79207031 -10.91210938 23.04101562 C-10.92262685 19.2161609 -10.85845624 17.44393436 -8.6875 14.1875 C-8.9996764 11.54117713 -8.9996764 11.54117713 -9.6875 9.1875 C-9.0275 9.1875 -8.3675 9.1875 -7.6875 9.1875 C-7.6875 7.2075 -7.6875 5.2275 -7.6875 3.1875 C-7.0275 3.1875 -6.3675 3.1875 -5.6875 3.1875 C-5.254375 2.6925 -4.82125 2.1975 -4.375 1.6875 C-2.6875 0.1875 -2.6875 0.1875 0 0 Z " fill="#585853" transform="translate(132.6875,206.8125)"/>
<path d="M0 0 C0.33 0.66 0.66 1.32 1 2 C-0.98 2.33 -2.96 2.66 -5 3 C-5 4.98 -5 6.96 -5 9 C-1.535 8.505 -1.535 8.505 2 8 C2 9.32 2 10.64 2 12 C1.67 12.33 1.34 12.66 1 13 C2.05127075 13.03758423 2.05127075 13.03758423 3.1237793 13.07592773 C6.31185488 13.19226545 9.49966242 13.31482044 12.6875 13.4375 C13.79029297 13.47681641 14.89308594 13.51613281 16.02929688 13.55664062 C17.09599609 13.59853516 18.16269531 13.64042969 19.26171875 13.68359375 C20.73064575 13.73858032 20.73064575 13.73858032 22.22924805 13.79467773 C24.89465177 13.99219333 27.39469788 14.41573033 30 15 C30 15.33 30 15.66 30 16 C29.28344238 15.99476318 28.56688477 15.98952637 27.82861328 15.98413086 C24.59408438 15.96339333 21.35956944 15.95035016 18.125 15.9375 C16.99707031 15.92912109 15.86914062 15.92074219 14.70703125 15.91210938 C13.09248047 15.90727539 13.09248047 15.90727539 11.4453125 15.90234375 C9.95281982 15.89448853 9.95281982 15.89448853 8.43017578 15.88647461 C5.99039227 15.8360585 5.99039227 15.8360585 4 17 C0.43344514 17.4861475 -3.13841739 17.89785513 -6.71484375 18.3046875 C-9.99939373 18.99987168 -11.08005814 19.34518384 -13 22 C-14.17574711 24.09989652 -14.17574711 24.09989652 -15 26 C-17.03104151 24.33240802 -17.9256922 23.48830838 -18.328125 20.84375 C-18.30234375 20.0703125 -18.2765625 19.296875 -18.25 18.5 C-18.23453125 17.7265625 -18.2190625 16.953125 -18.203125 16.15625 C-18 14 -18 14 -17 11 C-16.030625 10.360625 -15.06125 9.72125 -14.0625 9.0625 C-10.94525798 7.35591199 -10.94525798 7.35591199 -10.09765625 4.98046875 C-9 3 -9 3 -6.8359375 1.953125 C-6.02382812 1.72109375 -5.21171875 1.4890625 -4.375 1.25 C-3.55773437 1.00765625 -2.74046875 0.7653125 -1.8984375 0.515625 C-1.27195312 0.34546875 -0.64546875 0.1753125 0 0 Z " fill="#752324" transform="translate(100,77)"/>
<path d="M0 0 C0.77496826 0.00926514 1.54993652 0.01853027 2.34838867 0.02807617 C3.14462646 0.03411865 3.94086426 0.04016113 4.76123047 0.04638672 C10.40172414 0.13808851 15.99019754 0.48481983 21.59838867 1.09057617 C22.29649658 1.16050781 22.99460449 1.23043945 23.71386719 1.30249023 C27.89952186 1.81604239 30.8406617 2.84575926 34.28588867 5.27807617 C31.28588867 6.27807617 31.28588867 6.27807617 29.39624023 5.3527832 C28.69982422 4.99812988 28.0034082 4.64347656 27.28588867 4.27807617 C24.96874436 4.00539694 24.96874436 4.00539694 22.52026367 4.08276367 C21.63081055 4.08920898 20.74135742 4.0956543 19.82495117 4.10229492 C18.90456055 4.11905273 17.98416992 4.13581055 17.03588867 4.15307617 C15.63209961 4.16661133 15.63209961 4.16661133 14.19995117 4.18041992 C11.8950021 4.20393981 9.59057707 4.23680765 7.28588867 4.27807617 C7.46120117 5.0025293 7.63651367 5.72698242 7.81713867 6.47338867 C8.57613614 11.0147235 7.90071295 14.98077519 6.28588867 19.27807617 C4.21680081 21.96693689 1.92126252 24.15004703 -0.71411133 26.27807617 C-1.70411133 25.61807617 -2.69411133 24.95807617 -3.71411133 24.27807617 C-3.71411133 23.28807617 -3.71411133 22.29807617 -3.71411133 21.27807617 C-5.03411133 21.27807617 -6.35411133 21.27807617 -7.71411133 21.27807617 C-7.71411133 19.62807617 -7.71411133 17.97807617 -7.71411133 16.27807617 C-6.93036133 16.19557617 -6.14661133 16.11307617 -5.33911133 16.02807617 C-2.56662029 15.55001278 -2.56662029 15.55001278 -1.40161133 13.21557617 C-1.17473633 12.57620117 -0.94786133 11.93682617 -0.71411133 11.27807617 C-0.71411133 12.26807617 -0.71411133 13.25807617 -0.71411133 14.27807617 C-0.05411133 14.27807617 0.60588867 14.27807617 1.28588867 14.27807617 C0.29588867 11.96807617 -0.69411133 9.65807617 -1.71411133 7.27807617 C-0.33911133 5.77807617 -0.33911133 5.77807617 1.28588867 4.27807617 C1.94588867 4.27807617 2.60588867 4.27807617 3.28588867 4.27807617 C3.28588867 3.61807617 3.28588867 2.95807617 3.28588867 2.27807617 C-0.34411133 2.27807617 -3.97411133 2.27807617 -7.71411133 2.27807617 C-5.16101181 -0.27502335 -3.48394799 0.01990827 0 0 Z " fill="#252625" transform="translate(111.714111328125,91.721923828125)"/>
<path d="M0 0 C3.28514558 2.93316569 3.95890726 6.83562902 5 11 C3.02 12.65 1.04 14.3 -1 16 C-2.17571451 12.32589215 -2.07366746 8.83070817 -2 5 C-3.051875 5.7425 -3.051875 5.7425 -4.125 6.5 C-7.40326053 8.2103968 -9.37043195 8 -13 8 C-14.68798827 9.43750191 -14.68798827 9.43750191 -16 11 C-16.99 11 -17.98 11 -19 11 C-19 11.99 -19 12.98 -19 14 C-19.92232422 14.25523437 -19.92232422 14.25523437 -20.86328125 14.515625 C-26.94041196 16.31816121 -26.94041196 16.31816121 -31 21 C-33.8820462 22.92136413 -36.8813398 24.49842286 -40 26 C-40 24.68 -40 23.36 -40 22 C-38.68 22 -37.36 22 -36 22 C-35.67 20.35 -35.34 18.7 -35 17 C-34.01 17 -33.02 17 -32 17 C-32 16.34 -32 15.68 -32 15 C-27.13006037 9.98682685 -21.31392721 7.80255881 -14.734375 5.859375 C-12.31711607 5.09966505 -10.22074748 4.20554863 -8 3 C-8 2.34 -8 1.68 -8 1 C-5.17116253 -0.41441874 -3.12623255 -0.31900332 0 0 Z " fill="#E07342" transform="translate(108,131)"/>
<path d="M0 0 C0.33 0 0.66 0 1 0 C1 1.65 1 3.3 1 5 C1.598125 5.103125 2.19625 5.20625 2.8125 5.3125 C5.47036441 6.14782881 6.29400552 6.79224244 8 9 C8.87890625 12.21484375 8.87890625 12.21484375 9.5625 15.9375 C10.61946903 21.70226716 10.61946903 21.70226716 13 27 C10.36 26.67 7.72 26.34 5 26 C5 26.99 5 27.98 5 29 C4.34 29 3.68 29 3 29 C2.80508548 27.54263913 2.61930642 26.08405407 2.4375 24.625 C2.33308594 23.81289063 2.22867188 23.00078125 2.12109375 22.1640625 C2 20 2 20 3 18 C2.34 18 1.68 18 1 18 C0.87625 17.030625 0.7525 16.06125 0.625 15.0625 C0.41875 14.051875 0.2125 13.04125 0 12 C-0.66 11.67 -1.32 11.34 -2 11 C-2.66 10.01 -3.32 9.02 -4 8 C-5.32 8 -6.64 8 -8 8 C-8 7.34 -8 6.68 -8 6 C-6.865625 5.566875 -5.73125 5.13375 -4.5625 4.6875 C-2.7990625 3.8521875 -2.7990625 3.8521875 -1 3 C-0.67 2.01 -0.34 1.02 0 0 Z " fill="#BA4140" transform="translate(100,7)"/>
<path d="M0 0 C1.98 0.99 1.98 0.99 4 2 C4 38.63 4 75.26 4 113 C3.67 113 3.34 113 3 113 C1.17322751 104.57936649 0.56410671 96.35037486 0.3125 87.75 C0.26544922 86.5228125 0.21839844 85.295625 0.16992188 84.03125 C-0.13372373 74.83228152 -0.13372373 74.83228152 0.48852539 70.95947266 C1.25152904 65.05284109 1.14227165 59.17599212 1.1328125 53.2265625 C1.13376923 51.90707611 1.13472595 50.58758972 1.13571167 49.2281189 C1.13717906 46.44943051 1.135063 43.67077445 1.13037109 40.89208984 C1.12464088 37.32421141 1.12797949 33.75640765 1.13394356 30.18853188 C1.13841155 26.78453597 1.13529144 23.38056053 1.1328125 19.9765625 C1.13584885 18.04860336 1.13584885 18.04860336 1.13894653 16.08169556 C1.13579437 14.90311981 1.13264221 13.72454407 1.12939453 12.51025391 C1.12859894 11.4676944 1.12780334 10.42513489 1.12698364 9.35098267 C1.26475737 7.04211064 1.26475737 7.04211064 0 6 C-0.04080783 4.00041636 -0.04254356 1.99954746 0 0 Z " fill="#676764" transform="translate(146,99)"/>
<path d="M0 0 C2.18435897 2.95496836 2.52810629 6.19544457 3.09765625 9.7421875 C3.21882813 10.433125 3.34 11.1240625 3.46484375 11.8359375 C4.0387141 15.15440517 4.53728849 18.470564 4.98828125 21.80859375 C5.37876956 25.04303752 5.37876956 25.04303752 6.59765625 28.1796875 C7.52351023 31.15564672 7.34562571 32.12122455 6.47265625 34.9921875 C1.57758091 29.43561549 0.4450611 24.35765062 -0.75390625 17.1015625 C-1.5314193 13.97580296 -1.95020765 12.82761126 -4.52734375 10.9921875 C-5.51734375 10.6621875 -6.50734375 10.3321875 -7.52734375 9.9921875 C-7.77734375 3.3671875 -7.77734375 3.3671875 -5.52734375 -0.0078125 C-3.18600443 -1.06519155 -2.19298211 -1.44703167 0 0 Z " fill="#952728" transform="translate(108.52734375,2.0078125)"/>
<path d="M0 0 C0 0.99 0 1.98 0 3 C-0.99 3 -1.98 3 -3 3 C-1.9371942 6.34024679 -0.94244928 8.47303912 2.1796875 10.21875 C7.01293342 12.15792466 11.96350481 13.68613169 17 15 C12.78080897 16.25180279 9.03911435 15.67252421 4.75 15.0625 C4.00492188 14.96259766 3.25984375 14.86269531 2.4921875 14.75976562 C0.66054558 14.51319844 -1.16986251 14.25749609 -3 14 C-3 13.01 -3 12.02 -3 11 C-3.7425 11.020625 -4.485 11.04125 -5.25 11.0625 C-7.72988569 11.00613896 -9.62245271 10.61356059 -12 10 C-13.32 10 -14.64 10 -16 10 C-18 8 -18 8 -18.125 5.375 C-18.08375 4.59125 -18.0425 3.8075 -18 3 C-12.212365 1.69574423 -6.92773652 0.87387795 -1 1 C-0.67 0.67 -0.34 0.34 0 0 Z " fill="#A02A2C" transform="translate(120,76)"/>
<path d="M0 0 C4.55555556 0.55555556 4.55555556 0.55555556 6 2 C6.07313567 4.53049402 6.09247527 7.03304837 6.0625 9.5625 C6.05798828 10.27341797 6.05347656 10.98433594 6.04882812 11.71679688 C6.03700864 13.47790013 6.01907263 15.23896036 6 17 C7.32 16.34 8.64 15.68 10 15 C10 16.98 10 18.96 10 21 C6.7 21 3.4 21 0 21 C-0.144375 19.865625 -0.28875 18.73125 -0.4375 17.5625 C-0.61171478 14.19222799 -0.61171478 14.19222799 -2 13 C-2.12487758 11.19072719 -2.17570846 9.37603893 -2.1875 7.5625 C-2.20167969 6.57378906 -2.21585937 5.58507812 -2.23046875 4.56640625 C-2 2 -2 2 0 0 Z " fill="#7D7A73" transform="translate(130,235)"/>
<path d="M0 0 C-0.33 1.32 -0.66 2.64 -1 4 C0.32 4.33 1.64 4.66 3 5 C2.92303847 8.23238414 2.62561345 10.33227795 0.375 12.734375 C-1.37770071 14.21851673 -3.15079362 15.63844334 -5 17 C-5.12375 16.236875 -5.2475 15.47375 -5.375 14.6875 C-5.88102792 11.79732864 -5.88102792 11.79732864 -8 9 C-8.99 8.67 -9.98 8.34 -11 8 C-11.33 9.32 -11.66 10.64 -12 12 C-12.33 12 -12.66 12 -13 12 C-13.125 5.375 -13.125 5.375 -12 2 C-8.02584132 -0.22085338 -4.4785979 -0.17563129 0 0 Z " fill="#B83C3B" transform="translate(146,35)"/>
<path d="M0 0 C4.47062807 -0.3506375 7.9251683 -0.53741585 12 1.5 C14.70586566 4.88233208 15.15294447 7.79402719 15 12 C14.59744159 14.92446847 14.08015297 17.79106069 13.47265625 20.6796875 C12.93346517 22.93196483 12.93346517 22.93196483 13 25 C14.5778125 24.8453125 14.5778125 24.8453125 16.1875 24.6875 C20 25 20 25 22.875 27.0625 C25.41733802 30.57690844 26 32.67500571 26 37 C24.40334559 40.69751547 22.42827647 42.89879829 19 45 C18.34 45 17.68 45 17 45 C17.350625 46.2375 17.70125 47.475 18.0625 48.75 C18.95593273 51.903292 19.00881294 53.86774164 18 57 C15.36768827 53.49025103 14.30876095 50.41619414 14.43359375 45.98046875 C15.36160345 42.73563482 17.7390538 41.38756939 20.375 39.453125 C22.33793808 37.96091941 22.33793808 37.96091941 22.9375 34.625 C22.958125 33.75875 22.97875 32.8925 23 32 C22.01 31.67 21.02 31.34 20 31 C20.33 29.68 20.66 28.36 21 27 C17.04 27.66 13.08 28.32 9 29 C9.41104749 25.57460428 9.81510485 22.47855216 11.0625 19.25 C12.40009258 14.6130124 12.88389437 9.77153146 12 5 C8.40963762 1.34580896 4.8887527 1.40739606 0 1 C0 0.67 0 0.34 0 0 Z " fill="#A86768" transform="translate(125,8)"/>
<path d="M0 0 C0.75410156 0.00451172 1.50820312 0.00902344 2.28515625 0.01367188 C4.14847127 0.02546501 6.01174555 0.04340058 7.875 0.0625 C8.5859375 1.8359375 8.5859375 1.8359375 8.875 4.0625 C7.4765625 5.9140625 7.4765625 5.9140625 5.5 7.6875 C2.80135145 10.08027659 2.80135145 10.08027659 0.875 13.0625 C1.535 13.0625 2.195 13.0625 2.875 13.0625 C2.875 13.7225 2.875 14.3825 2.875 15.0625 C1.885 15.0625 0.895 15.0625 -0.125 15.0625 C-0.125 14.4025 -0.125 13.7425 -0.125 13.0625 C-0.785 13.0625 -1.445 13.0625 -2.125 13.0625 C-2.269375 12.464375 -2.41375 11.86625 -2.5625 11.25 C-3.0122439 9.50099596 -3.55392341 7.77572977 -4.125 6.0625 C-5.445 6.0625 -6.765 6.0625 -8.125 6.0625 C-8.785 4.4125 -9.445 2.7625 -10.125 1.0625 C-6.93675432 -0.53162284 -3.49603338 -0.03924735 0 0 Z " fill="#51524E" transform="translate(129.125,94.9375)"/>
<path d="M0 0 C1.1446875 0.0928125 1.1446875 0.0928125 2.3125 0.1875 C2.3125 2.1675 2.3125 4.1475 2.3125 6.1875 C1.9825 5.5275 1.6525 4.8675 1.3125 4.1875 C-0.9975 4.5175 -3.3075 4.8475 -5.6875 5.1875 C-5.5225 6.239375 -5.3575 7.29125 -5.1875 8.375 C-4.79180322 11.39218796 -4.59571029 14.15843972 -4.6875 17.1875 C-5.3475 17.1875 -6.0075 17.1875 -6.6875 17.1875 C-6.56181641 18.0228125 -6.56181641 18.0228125 -6.43359375 18.875 C-5.71693416 24.24541108 -5.81267289 28.84133432 -6.6875 34.1875 C-8.1725 34.6825 -8.1725 34.6825 -9.6875 35.1875 C-11.2595124 32.04347519 -10.87196744 28.69802603 -10.875 25.25 C-10.88724609 24.52103516 -10.89949219 23.79207031 -10.91210938 23.04101562 C-10.92262685 19.2161609 -10.85845624 17.44393436 -8.6875 14.1875 C-8.9996764 11.54117713 -8.9996764 11.54117713 -9.6875 9.1875 C-9.0275 9.1875 -8.3675 9.1875 -7.6875 9.1875 C-7.6875 7.2075 -7.6875 5.2275 -7.6875 3.1875 C-7.0275 3.1875 -6.3675 3.1875 -5.6875 3.1875 C-5.254375 2.6925 -4.82125 2.1975 -4.375 1.6875 C-2.6875 0.1875 -2.6875 0.1875 0 0 Z " fill="#4F4F4B" transform="translate(132.6875,206.8125)"/>
<path d="M0 0 C1.31223496 3.93670488 0.24296256 6.12488144 -1 10 C-0.01 10.33 0.98 10.66 2 11 C2 11.66 2 12.32 2 13 C4.31 13.33 6.62 13.66 9 14 C9 14.66 9 15.32 9 16 C10.258125 15.814375 11.51625 15.62875 12.8125 15.4375 C15.82744268 14.99267239 17.00468461 15.00156154 20 16 C20 16.66 20 17.32 20 18 C20.99 17.67 21.98 17.34 23 17 C23.66 17.66 24.32 18.32 25 19 C27.00868304 19.20534422 27.00868304 19.20534422 29.25 19.0625 C32.96280179 18.97252904 36.34615976 19.25049431 40 20 C40 20.66 40 21.32 40 22 C42.31 21.67 44.62 21.34 47 21 C46.505 22.485 46.505 22.485 46 24 C38.66761364 23.24147727 38.66761364 23.24147727 35.0625 21.9375 C31.91565246 20.79364673 31.91565246 20.79364673 28.125 21.125 C19.03420406 21.37279001 9.48029542 17.92787805 1 15 C1 14.34 1 13.68 1 13 C-0.32 12.34 -1.64 11.68 -3 11 C-2.25 3.375 -2.25 3.375 0 0 Z " fill="#B8592C" transform="translate(66,152)"/>
<path d="M0 0 C0.33 0.66 0.66 1.32 1 2 C-0.98 2.33 -2.96 2.66 -5 3 C-5 4.98 -5 6.96 -5 9 C-4.01 9 -3.02 9 -2 9 C-3 12 -3 12 -4.9609375 13.02734375 C-5.75757812 13.32769531 -6.55421875 13.62804687 -7.375 13.9375 C-11.04553191 15.44172115 -12.82238516 16.61259913 -15 20 C-15.99 20 -16.98 20 -18 20 C-17.98675159 16.8998717 -17.81618376 13.99960529 -17 11 C-14.0625 8.6875 -14.0625 8.6875 -11 7 C-10.70222656 6.34128906 -10.40445313 5.68257813 -10.09765625 5.00390625 C-9 3 -9 3 -6.8359375 1.953125 C-6.02382812 1.72109375 -5.21171875 1.4890625 -4.375 1.25 C-3.55773437 1.00765625 -2.74046875 0.7653125 -1.8984375 0.515625 C-1.27195312 0.34546875 -0.64546875 0.1753125 0 0 Z " fill="#691B1F" transform="translate(100,77)"/>
<path d="M0 0 C0.66 0.66 1.32 1.32 2 2 C0.02 2.33 -1.96 2.66 -4 3 C-4 3.66 -4 4.32 -4 5 C-9.24493326 8.34782974 -13.87903309 9.94513949 -20 11 C-19.625 8.3125 -19.625 8.3125 -18 5 C-12.35128554 0.89087877 -6.90781148 -0.86347644 0 0 Z M-22 11 C-21.34 11.33 -20.68 11.66 -20 12 C-21.98 12.99 -21.98 12.99 -24 14 C-23.34 13.01 -22.68 12.02 -22 11 Z " fill="#D6652F" transform="translate(104,129)"/>
<path d="M0 0 C3.40029716 0.58625813 4.60909911 1.60909911 7 4 C9.28904231 5.42680216 11.63198248 6.7042923 14 8 C13.4140625 14.15234375 13.4140625 14.15234375 13 16 C12.34 16.33 11.68 16.66 11 17 C6.87202847 13.11485033 2.85255988 8.93071347 0 4 C0 2.68 0 1.36 0 0 Z " fill="#DD746E" transform="translate(111,41)"/>
<path d="M0 0 C0.3958132 4.48588289 -0.98475702 7.05713329 -3 11 C-2.67 11.66 -2.34 12.32 -2 13 C-2 13.99 -2 14.98 -2 16 C-1.01 16 -0.02 16 1 16 C1.66 18.97 2.32 21.94 3 25 C1.02 25 -0.96 25 -3 25 C-3.33 23.35 -3.66 21.7 -4 20 C-4.99 20.33 -5.98 20.66 -7 21 C-7 18.69 -7 16.38 -7 14 C-6.34 14 -5.68 14 -5 14 C-5.04640625 13.32453125 -5.0928125 12.6490625 -5.140625 11.953125 C-5.43839491 4.59395439 -5.43839491 4.59395439 -3.0625 1.375 C-1 0 -1 0 0 0 Z " fill="#63625D" transform="translate(143,231)"/>
<path d="M0 0 C1.32 0 2.64 0 4 0 C4 1.32 4 2.64 4 4 C4.99 4.33 5.98 4.66 7 5 C7 6.98 7 8.96 7 11 C7.66 11 8.32 11 9 11 C9 14.63 9 18.26 9 22 C10.32 22.33 11.64 22.66 13 23 C13.38909985 24.45463481 13.76088029 25.91391207 14.125 27.375 C14.33382812 28.18710937 14.54265625 28.99921875 14.7578125 29.8359375 C14.83773437 30.55007812 14.91765625 31.26421875 15 32 C14.34 32.66 13.68 33.32 13 34 C10.52756948 30.23852451 9.16443663 26.69659866 7.9375 22.375 C6.90004832 18.73350293 6.10936513 16.1640477 4 13 C3.92094936 10.66800612 3.91201231 8.33167378 4 6 C3.34 6 2.68 6 2 6 C2 5.01 2 4.02 2 3 C1.34 3 0.68 3 0 3 C0 2.01 0 1.02 0 0 Z " fill="#9C2F2F" transform="translate(94,14)"/>
<path d="M0 0 C2.10633718 1.70828921 2.93801608 2.52148416 3.29296875 5.26171875 C3.25816406 6.06222656 3.22335938 6.86273438 3.1875 7.6875 C3.16042969 8.49574219 3.13335937 9.30398437 3.10546875 10.13671875 C3.07066406 10.75160156 3.03585938 11.36648437 3 12 C1.68 12 0.36 12 -1 12 C-0.67 12.99 -0.34 13.98 0 15 C3.02282643 16.03547047 3.02282643 16.03547047 6.5625 16.6875 C7.76003906 16.93886719 8.95757812 17.19023438 10.19140625 17.44921875 C11.11824219 17.63097656 12.04507813 17.81273438 13 18 C13 18.66 13 19.32 13 20 C14.134375 20.268125 15.26875 20.53625 16.4375 20.8125 C17.613125 21.204375 18.78875 21.59625 20 22 C20.33 22.99 20.66 23.98 21 25 C17.22893428 24.41077098 13.80744237 23.27297173 10.2578125 21.8828125 C8.6369322 21.2490427 7.00518277 20.64281043 5.3671875 20.0546875 C4.48289062 19.72726563 3.59859375 19.39984375 2.6875 19.0625 C1.86636719 18.76472656 1.04523438 18.46695313 0.19921875 18.16015625 C-2.39031334 16.79409758 -3.52584215 15.5141786 -5 13 C-5 12.01 -5 11.02 -5 10 C-3.02 10 -1.04 10 1 10 C0.649375 8.906875 0.29875 7.81375 -0.0625 6.6875 C-1 3 -1 3 0 0 Z " fill="#BC4746" transform="translate(122,69)"/>
<path d="M0 0 C0.33 0.66 0.66 1.32 1 2 C-0.33175381 5.86208606 -3.01639313 8.30747672 -6 11 C-6.99 11.33 -7.98 11.66 -9 12 C-9 12.66 -9 13.32 -9 14 C-9.99 14 -10.98 14 -12 14 C-12.33 15.65 -12.66 17.3 -13 19 C-14.32 19 -15.64 19 -17 19 C-17 19.99 -17 20.98 -17 22 C-17.66 21.67 -18.32 21.34 -19 21 C-20.65 22.32 -22.3 23.64 -24 25 C-24 21.18586541 -22.50768477 19.79430663 -20.0390625 17.02734375 C-15.99172523 13.00326704 -11.45628373 9.55472344 -7 6 C-4.64764006 4.02077302 -2.32322516 2.01346181 0 0 Z " fill="#BE693F" transform="translate(85,134)"/>
<path d="M0 0 C0.99 0.33 1.98 0.66 3 1 C-0.09652196 4.27346607 -2.95019912 6.97509956 -7 9 C-7.99 9 -8.98 9 -10 9 C-13.69381195 9.29161673 -14.8167785 9.8167785 -17.5 12.5 C-20.17724199 15.17724199 -21.34590924 15.59398992 -25 16 C-25.33 16.33 -25.66 16.66 -26 17 C-27.99958364 17.04080783 -30.00045254 17.04254356 -32 17 C-31.67 15.35 -31.34 13.7 -31 12 C-30.67 12.66 -30.34 13.32 -30 14 C-26.54702491 12.68516607 -23.3647797 11.14497549 -20.125 9.375 C-15.74615279 7.13969027 -12.86094588 6.47163632 -8 7 C-8 6.34 -8 5.68 -8 5 C-5.09451118 2.95830515 -3.59857954 2 0 2 C0 1.34 0 0.68 0 0 Z " fill="#EC7E51" transform="translate(98,145)"/>
<path d="M0 0 C2.33944736 0.28730055 4.6739143 0.61936779 7 1 C7.99 3.97 8.98 6.94 10 10 C8.02 11.65 6.04 13.3 4 15 C2.82428549 11.32589215 2.92633254 7.83070817 3 4 C2.2575 4.515625 1.515 5.03125 0.75 5.5625 C-2 7 -2 7 -4.3125 6.6875 C-4.869375 6.460625 -5.42625 6.23375 -6 6 C-4 4 -2 2 0 0 Z " fill="#EB794A" transform="translate(103,132)"/>
<path d="M0 0 C1.134375 0.020625 2.26875 0.04125 3.4375 0.0625 C7.53099959 12.42248419 9.68521986 25.01592097 9.4375 38.0625 C8.7775 37.7325 8.1175 37.4025 7.4375 37.0625 C7.05859375 35.03125 7.05859375 35.03125 6.875 32.5625 C6.8582737 29.51268475 6.8582737 29.51268475 5.4375 27.0625 C5.1774334 25.63752849 4.97093411 24.20267098 4.7890625 22.765625 C4.67046875 21.8890625 4.551875 21.0125 4.4296875 20.109375 C4.18704364 18.26115153 3.94996106 16.41218848 3.71875 14.5625 C2.80159716 7.86285624 2.80159716 7.86285624 -0.5625 2.0625 C-2.64783633 1.18427688 -2.64783633 1.18427688 -4.5625 1.0625 C-3.5625 0.0625 -3.5625 0.0625 0 0 Z " fill="#AE4241" transform="translate(107.5625,-0.0625)"/>
<path d="M0 0 C0.66 0 1.32 0 2 0 C2 2.64 2 5.28 2 8 C-0.64 8.33 -3.28 8.66 -6 9 C-6 9.66 -6 10.32 -6 11 C-6.99 10.67 -7.98 10.34 -9 10 C-8.67 9.01 -8.34 8.02 -8 7 C-9.98 7 -11.96 7 -14 7 C-14.33 7.66 -14.66 8.32 -15 9 C-15 8.01 -15 7.02 -15 6 C-11.19858881 3.25453636 -7.82872343 2.34022762 -3.3125 1.5 C-1.04844958 1.22901669 -1.04844958 1.22901669 0 0 Z M-11 11 C-9 12 -9 12 -9 12 Z " fill="#F2875C" transform="translate(104,136)"/>
<path d="M0 0 C0 4.56971016 -2.57575825 6.62835803 -5.57421875 9.8984375 C-9.26931426 13.09966356 -13.15587565 14.51005594 -18 15 C-18.88300781 14.81179687 -19.76601562 14.62359375 -20.67578125 14.4296875 C-21.44277344 14.28789062 -22.20976563 14.14609375 -23 14 C-25.93447357 16.93447357 -25.46158423 20.18259456 -25.625 24.125 C-25.66367188 24.87910156 -25.70234375 25.63320312 -25.7421875 26.41015625 C-25.83651031 28.27303184 -25.91934662 30.13648255 -26 32 C-26.33 32 -26.66 32 -27 32 C-27 25.07 -27 18.14 -27 11 C-25.185 11.268125 -23.37 11.53625 -21.5 11.8125 C-16.08704282 12.258798 -13.03615369 11.77345503 -8.68359375 8.54296875 C-6.15063552 6.22158012 -4.10071164 3.71856801 -2 1 C-1.34 0.67 -0.68 0.34 0 0 Z " fill="#291E18" transform="translate(117,172)"/>
<path d="M0 0 C0.66 0 1.32 0 2 0 C1.67 2.64 1.34 5.28 1 8 C0.34 8 -0.32 8 -1 8 C-1.02505615 8.56509277 -1.0501123 9.13018555 -1.07592773 9.71240234 C-1.19179956 12.26683742 -1.31456537 14.8208955 -1.4375 17.375 C-1.47681641 18.26445312 -1.51613281 19.15390625 -1.55664062 20.0703125 C-1.59853516 20.92109375 -1.64042969 21.771875 -1.68359375 22.6484375 C-1.72025146 23.43395996 -1.75690918 24.21948242 -1.79467773 25.02880859 C-2 27 -2 27 -3 29 C-3.66 29 -4.32 29 -5 29 C-5.30431487 19.31264329 -4.96809615 9.98289483 -1 1 C-0.67 0.67 -0.34 0.34 0 0 Z " fill="#E07973" transform="translate(132,11)"/>
<path d="M0 0 C0.33 0 0.66 0 1 0 C1 1.65 1 3.3 1 5 C2.32 5.33 3.64 5.66 5 6 C5.33 8.64 5.66 11.28 6 14 C1.35550201 13.00475043 -1.30716259 12.03925611 -4 8 C-5.32 8 -6.64 8 -8 8 C-8 7.34 -8 6.68 -8 6 C-6.865625 5.566875 -5.73125 5.13375 -4.5625 4.6875 C-2.7990625 3.8521875 -2.7990625 3.8521875 -1 3 C-0.67 2.01 -0.34 1.02 0 0 Z " fill="#AD4B4B" transform="translate(100,7)"/>
<path d="M0 0 C0.99 0.33 1.98 0.66 3 1 C3.68939809 3.32671854 4.35466922 5.66067594 5 8 C6.39588754 9.64594139 6.39588754 9.64594139 8 11 C9.01866229 12.65532623 10.01810813 14.32260138 11 16 C11.51175781 16.58394531 12.02351563 17.16789062 12.55078125 17.76953125 C14.42519595 20.6544121 14.50195997 22.83606345 14.6875 26.25 C14.78611328 27.86648437 14.78611328 27.86648437 14.88671875 29.515625 C14.92410156 30.33546875 14.96148437 31.1553125 15 32 C12.22157405 29.22157405 11.05528792 27.21633419 10.875 23.25 C10.91625 22.5075 10.9575 21.765 11 21 C10.34 21 9.68 21 9 21 C8.7525 20.0925 8.505 19.185 8.25 18.25 C7.26507671 14.98375643 7.26507671 14.98375643 5.0625 13.1875 C1.85130697 9.78168922 0 4.72570601 0 0 Z " fill="#BD4E4D" transform="translate(107,37)"/>
<path d="M0 0 C0.33 0 0.66 0 1 0 C1.10022461 0.63800537 1.20044922 1.27601074 1.30371094 1.93334961 C3.38801805 15.09260603 5.70176976 28.0877795 9 41 C8.01 41 7.02 41 6 41 C5.7525 39.72125 5.505 38.4425 5.25 37.125 C4.5709585 33.65598363 3.81909241 30.21742973 2.9765625 26.78515625 C0.76720749 17.645031 -0.60146366 9.45634534 0 0 Z " fill="#6E6F6A" transform="translate(150,215)"/>
<path d="M0 0 C0 0.99 0 1.98 0 3 C-0.99 3 -1.98 3 -3 3 C-1.9371942 6.34024679 -0.94244928 8.47303912 2.1796875 10.21875 C7.01293342 12.15792466 11.96350481 13.68613169 17 15 C12.78080897 16.25180279 9.03911435 15.67252421 4.75 15.0625 C4.00492188 14.96259766 3.25984375 14.86269531 2.4921875 14.75976562 C0.66054558 14.51319844 -1.16986251 14.25749609 -3 14 C-3.66 10.7 -4.32 7.4 -5 4 C-5.99 4.495 -5.99 4.495 -7 5 C-6.67 4.01 -6.34 3.02 -6 2 C-2.9375 0.8125 -2.9375 0.8125 0 0 Z " fill="#A53636" transform="translate(120,76)"/>
<path d="M0 0 C0.98484375 0.10183594 1.9696875 0.20367187 2.984375 0.30859375 C4.10585937 0.43427734 4.10585937 0.43427734 5.25 0.5625 C5.25 1.8825 5.25 3.2025 5.25 4.5625 C0.72258828 6.07163724 -3.81426798 6.33679281 -8.25 4.5625 C-8.745 4.2325 -9.24 3.9025 -9.75 3.5625 C-9.75 2.5725 -9.75 1.5825 -9.75 0.5625 C-6.33860997 -0.53401823 -3.54344419 -0.37965473 0 0 Z " fill="#D36964" transform="translate(130.75,80.4375)"/>
<path d="M0 0 C0.33 0 0.66 0 1 0 C1 1.65 1 3.3 1 5 C-0.65 5.33 -2.3 5.66 -4 6 C-4 6.66 -4 7.32 -4 8 C-1.36 8 1.28 8 4 8 C4.33 7.01 4.66 6.02 5 5 C4.34 4.67 3.68 4.34 3 4 C3.66 3.01 4.32 2.02 5 1 C7 4 7 4 7 6.875 C5.62807594 11.16226268 3.60707439 12.39062704 0 15 C-0.66 14.34 -1.32 13.68 -2 13 C-2 12.01 -2 11.02 -2 10 C-3.32 10 -4.64 10 -6 10 C-6 8.35 -6 6.7 -6 5 C-4.35 4.67 -2.7 4.34 -1 4 C-0.67 2.68 -0.34 1.36 0 0 Z " fill="#151514" transform="translate(110,103)"/>
<path d="M0 0 C0.2361959 6.40353322 -0.176679 11.84629161 -2 18 C-2.66 17.67 -3.32 17.34 -4 17 C-5.16241691 12.23409065 -6.25300467 5.50600934 -4 1 C-1 0 -1 0 0 0 Z " fill="#9F2A2A" transform="translate(127,10)"/>
<path d="M0 0 C2 2 2 2 3 5 C6.3 5 9.6 5 13 5 C13.33 5.66 13.66 6.32 14 7 C13.01 7.66 12.02 8.32 11 9 C9.7811879 12.55672179 9.7811879 12.55672179 9 16 C8.34 16 7.68 16 7 16 C6.67 13.03 6.34 10.06 6 7 C4.35 7.33 2.7 7.66 1 8 C0.67 5.36 0.34 2.72 0 0 Z " fill="#B55454" transform="translate(120,4)"/>
<path d="M0 0 C0.94064619 2.82193857 0.98575338 4.89753723 0.9375 7.9375 C0.88565902 11.44324631 1.55822459 13.77720791 3 17 C4.04541582 21.26878126 4.12506344 23.19940577 2 27 C-3.96021256 8.29451148 -3.96021256 8.29451148 -0.9765625 1.7578125 C-0.65429688 1.17773438 -0.33203125 0.59765625 0 0 Z " fill="#79383D" transform="translate(90,16)"/>
<path d="M0 0 C0.19622241 4.21878192 -0.19769832 7.17010894 -2 11 C-4.31 10.67 -6.62 10.34 -9 10 C-8.34 9.67 -7.68 9.34 -7 9 C-7 7.68 -7 6.36 -7 5 C-5.35 5 -3.7 5 -2 5 C-2 4.01 -2 3.02 -2 2 C-4.31 2.33 -6.62 2.66 -9 3 C-9 3.99 -9 4.98 -9 6 C-9.99 5.67 -10.98 5.34 -12 5 C-8.9213239 0.38198585 -5.38443111 0 0 0 Z " fill="#121313" transform="translate(96,109)"/>
<path d="M0 0 C0.75410156 0.00451172 1.50820312 0.00902344 2.28515625 0.01367188 C4.14847127 0.02546501 6.01174555 0.04340058 7.875 0.0625 C8.205 1.3825 8.535 2.7025 8.875 4.0625 C7.885 4.5575 7.885 4.5575 6.875 5.0625 C6.875 3.7425 6.875 2.4225 6.875 1.0625 C3.905 1.0625 0.935 1.0625 -2.125 1.0625 C-1.795 2.3825 -1.465 3.7025 -1.125 5.0625 C-3.435 5.3925 -5.745 5.7225 -8.125 6.0625 C-8.785 4.4125 -9.445 2.7625 -10.125 1.0625 C-6.93675432 -0.53162284 -3.49603338 -0.03924735 0 0 Z " fill="#40413F" transform="translate(129.125,94.9375)"/>
<path d="M0 0 C0.99 0.33 1.98 0.66 3 1 C3.33 2.98 3.66 4.96 4 7 C4.66 7 5.32 7 6 7 C6 8.98 6 10.96 6 13 C5.236875 12.360625 4.47375 11.72125 3.6875 11.0625 C1.11753287 8.85767219 1.11753287 8.85767219 -2 8 C-2 6.35 -2 4.7 -2 3 C-1.34 3 -0.68 3 0 3 C0 2.01 0 1.02 0 0 Z " fill="#69181B" transform="translate(103,4)"/>
<path d="M0 0 C9.8078342 -0.52935837 17.78886689 0.57260163 27 4 C27.33 3.01 27.66 2.02 28 1 C28.66 1.33 29.32 1.66 30 2 C29.01 3.32 28.02 4.64 27 6 C26.35933594 5.86722656 25.71867187 5.73445312 25.05859375 5.59765625 C16.47440841 3.27733939 16.47440841 3.27733939 7.9375 3.625 C4.78098424 4.23593853 2.69122259 2.52910375 0 1 C0 0.67 0 0.34 0 0 Z " fill="#9E4E28" transform="translate(85,172)"/>
<path d="M0 0 C1.20614281 2.41228561 0.94700669 3.64843226 0.75 6.3125 C0.68110223 10.20835579 0.79662745 10.75491 3.4375 13.9375 C4.283125 14.618125 5.12875 15.29875 6 16 C6.33 16.66 6.66 17.32 7 18 C2.61560795 16.80425671 -0.27971819 15.72779359 -3 12 C-4 8.5625 -4 8.5625 -4 5 C-2.0625 2.0625 -2.0625 2.0625 0 0 Z " fill="#934B2C" transform="translate(63,156)"/>
<path d="M0 0 C1.32 0.66 2.64 1.32 4 2 C3.67 2.66 3.34 3.32 3 4 C2.34 3.67 1.68 3.34 1 3 C1.04125 3.928125 1.0825 4.85625 1.125 5.8125 C1 9 1 9 -1 12 C-1.4562792 14.57713254 -1.82945276 17.09298285 -2.125 19.6875 C-2.21136719 20.38939453 -2.29773438 21.09128906 -2.38671875 21.81445312 C-2.59826875 23.54211145 -2.800086 25.2709566 -3 27 C-3.33 27 -3.66 27 -4 27 C-4.02705308 24.58325776 -4.04686438 22.1668206 -4.0625 19.75 C-4.07087891 19.06808594 -4.07925781 18.38617187 -4.08789062 17.68359375 C-4.10428392 14.30657446 -4.05628768 11.22708361 -3 8 C-2.34 8 -1.68 8 -1 8 C-0.67 5.36 -0.34 2.72 0 0 Z " fill="#D85E5D" transform="translate(134,11)"/>
<path d="M0 0 C1.57297959 0.00268369 3.14597145 0.01767784 4.71875 0.04296875 C5.52940918 0.04941406 6.34006836 0.05585937 7.17529297 0.0625 C12.90685912 0.13584938 18.53036645 0.49648378 24.21875 1.23046875 C24.21875 1.56046875 24.21875 1.89046875 24.21875 2.23046875 C23.26613281 2.29105469 22.31351563 2.35164063 21.33203125 2.4140625 C20.07777344 2.49785156 18.82351562 2.58164063 17.53125 2.66796875 C16.28988281 2.74917969 15.04851562 2.83039063 13.76953125 2.9140625 C10.83694663 3.17538192 8.08433383 3.57845254 5.21875 4.23046875 C5.21875 3.57046875 5.21875 2.91046875 5.21875 2.23046875 C1.58875 2.23046875 -2.04125 2.23046875 -5.78125 2.23046875 C-3.78125 0.23046875 -3.78125 0.23046875 0 0 Z " fill="#1F1515" transform="translate(109.78125,91.76953125)"/>
<path d="M0 0 C0.99 0.33 1.98 0.66 3 1 C3 1.66 3 2.32 3 3 C3.99 3.33 4.98 3.66 6 4 C5.67 5.98 5.34 7.96 5 10 C5.99 10.33 6.98 10.66 8 11 C7 12 7 12 3.9375 12.0625 C2.968125 12.041875 1.99875 12.02125 1 12 C0.63896464 10.18885568 0.28634496 8.37603177 -0.0625 6.5625 C-0.25972656 5.55316406 -0.45695312 4.54382813 -0.66015625 3.50390625 C-0.77230469 2.67761719 -0.88445312 1.85132812 -1 1 C-0.67 0.67 -0.34 0.34 0 0 Z " fill="#D0605C" transform="translate(124,68)"/>
<path d="M0 0 C0.66 0 1.32 0 2 0 C1.70100785 3.58790575 1.23013399 4.78166776 -1.4375 7.3125 C-4 9 -4 9 -6 9 C-5.4740625 10.85625 -5.4740625 10.85625 -4.9375 12.75 C-4.04406727 15.903292 -3.99118706 17.86774164 -5 21 C-7.62789902 17.49613464 -8.69201156 14.42577432 -8.56640625 9.99609375 C-7.63058577 6.6981333 -5.32805135 5.17867148 -2.62890625 3.2265625 C-0.85426954 2.07978851 -0.85426954 2.07978851 0 0 Z " fill="#865C5A" transform="translate(148,44)"/>
<path d="M0 0 C3.50588356 0.56398996 4.98982392 1.66963773 7.25 4.375 C7.77078125 4.98085938 8.2915625 5.58671875 8.828125 6.2109375 C10 8 10 8 10 11 C6.77788109 10.41861767 5.06332259 9.49498087 2.75 7.1875 C2.22921875 6.68605469 1.7084375 6.18460938 1.171875 5.66796875 C0 4 0 4 0 0 Z " fill="#E17973" transform="translate(111,41)"/>
<path d="M0 0 C0 2.64 0 5.28 0 8 C-1.65 8.33 -3.3 8.66 -5 9 C-6.25664978 6.09399739 -7 4.20395416 -7 1 C-2.25 0 -2.25 0 0 0 Z " fill="#61605A" transform="translate(134,211)"/>
<path d="M0 0 C-0.66 0 -1.32 0 -2 0 C-2 1.98 -2 3.96 -2 6 C-4.31 6.33 -6.62 6.66 -9 7 C-9.6875 5.1875 -9.6875 5.1875 -10 3 C-8.5370808 0.92111481 -7.37490917 0.14059094 -5 -0.75 C-3 -1 -3 -1 0 0 Z " fill="#831F21" transform="translate(104,79)"/>
<path d="M0 0 C0.66 0 1.32 0 2 0 C2.66 1.65 3.32 3.3 4 5 C0.25 9.875 0.25 9.875 -2 11 C-1.67 13.64 -1.34 16.28 -1 19 C-1.66 19.33 -2.32 19.66 -3 20 C-4.3271261 16.0186217 -4.06915913 12.14954773 -4 8 C-3.34 8 -2.68 8 -2 8 C-1.34 5.36 -0.68 2.72 0 0 Z " fill="#D4625F" transform="translate(125,49)"/>
<path d="M0 0 C3.625 0.5 3.625 0.5 6.5 2.5625 C8.96564564 5.97089251 9.38054295 8.34423007 9.625 12.5 C8.965 12.17 8.305 11.84 7.625 11.5 C7.480625 10.84 7.33625 10.18 7.1875 9.5 C7.001875 8.84 6.81625 8.18 6.625 7.5 C5.635 7.17 4.645 6.84 3.625 6.5 C3.955 5.18 4.285 3.86 4.625 2.5 C0.995 2.83 -2.635 3.16 -6.375 3.5 C-3.375 0.5 -3.375 0.5 0 0 Z " fill="#B77170" transform="translate(141.375,32.5)"/>
<path d="M0 0 C-1.68662964 2.75186941 -2.43521114 3.85207911 -5.625 4.6875 C-6.40875 4.790625 -7.1925 4.89375 -8 5 C-8.33 5.33 -8.66 5.66 -9 6 C-10.99958364 6.04080783 -13.00045254 6.04254356 -15 6 C-14.67 4.35 -14.34 2.7 -14 1 C-13.67 1.66 -13.34 2.32 -13 3 C-12.236875 2.690625 -11.47375 2.38125 -10.6875 2.0625 C-6.88786528 0.56031883 -4.07361224 -0.11009763 0 0 Z " fill="#E4784A" transform="translate(81,156)"/>
<path d="M0 0 C1.32 0 2.64 0 4 0 C3.67 1.32 3.34 2.64 3 4 C3.66 4.33 4.32 4.66 5 5 C4.27554688 5.03738281 3.55109375 5.07476562 2.8046875 5.11328125 C-2.84607022 5.49753278 -7.02913036 6.06846149 -12 9 C-12.66 9 -13.32 9 -14 9 C-13.67 8.01 -13.34 7.02 -13 6 C-11.02 5.67 -9.04 5.34 -7 5 C-7 4.34 -7 3.68 -7 3 C-4.69 3 -2.38 3 0 3 C0 2.01 0 1.02 0 0 Z " fill="#2D160C" transform="translate(102,124)"/>
<path d="M0 0 C0 0.99 0 1.98 0 3 C-1.65 3 -3.3 3 -5 3 C-5 4.32 -5 5.64 -5 7 C-5.66 7 -6.32 7 -7 7 C-7 9.31 -7 11.62 -7 14 C-7.66 14 -8.32 14 -9 14 C-9.33 10.7 -9.66 7.4 -10 4 C-9.01 4 -8.02 4 -7 4 C-7 3.01 -7 2.02 -7 1 C-4.50935112 0.31292445 -2.62113708 0 0 0 Z " fill="#3D3E3D" transform="translate(94,111)"/>
<path d="M0 0 C0.33 0 0.66 0 1 0 C1 3.63 1 7.26 1 11 C0.01 9.68 -0.98 8.36 -2 7 C-1.34 6.67 -0.68 6.34 0 6 C0 4.02 0 2.04 0 0 Z M-1 11 C0.14982602 15.09003859 0.11094256 19.03177051 0.0625 23.25 C0.05798828 23.99507812 0.05347656 24.74015625 0.04882812 25.5078125 C0.03709246 27.3385764 0.0191585 29.16929873 0 31 C-0.99 31 -1.98 31 -3 31 C-3.05392397 28.22890693 -3.09363455 25.45886182 -3.125 22.6875 C-3.14175781 21.90181641 -3.15851563 21.11613281 -3.17578125 20.30664062 C-3.18544922 19.1706543 -3.18544922 19.1706543 -3.1953125 18.01171875 C-3.20578613 17.31522217 -3.21625977 16.61872559 -3.22705078 15.90112305 C-3 14 -3 14 -1 11 Z " fill="#40403D" transform="translate(125,210)"/>
<path d="M0 0 C1.00546875 -0.00128906 2.0109375 -0.00257812 3.046875 -0.00390625 C4.62082031 0.00189453 4.62082031 0.00189453 6.2265625 0.0078125 C7.268125 0.00394531 8.3096875 0.00007813 9.3828125 -0.00390625 C10.39085938 -0.00261719 11.39890625 -0.00132813 12.4375 0 C13.81494385 0.00169189 13.81494385 0.00169189 15.22021484 0.00341797 C17.85580024 0.13302089 20.28184658 0.54828484 22.8515625 1.1328125 C22.8515625 1.4628125 22.8515625 1.7928125 22.8515625 2.1328125 C22.13500488 2.12757568 21.41844727 2.12233887 20.68017578 2.11694336 C17.44564688 2.09620583 14.21113194 2.08316266 10.9765625 2.0703125 C9.84863281 2.06193359 8.72070312 2.05355469 7.55859375 2.04492188 C5.94404297 2.04008789 5.94404297 2.04008789 4.296875 2.03515625 C2.80438232 2.02730103 2.80438232 2.02730103 1.28173828 2.01928711 C-1.15804523 1.968871 -1.15804523 1.968871 -3.1484375 3.1328125 C-4.68867746 3.20231791 -6.23178738 3.21733607 -7.7734375 3.1953125 C-8.99933594 3.18177734 -8.99933594 3.18177734 -10.25 3.16796875 C-11.18972656 3.15056641 -11.18972656 3.15056641 -12.1484375 3.1328125 C-7.96983456 0.97146615 -4.7149271 0.00580554 0 0 Z " fill="#4F1F1F" transform="translate(107.1484375,90.8671875)"/>
<path d="M0 0 C2.10633718 1.70828921 2.93801608 2.52148416 3.29296875 5.26171875 C3.25816406 6.06222656 3.22335938 6.86273438 3.1875 7.6875 C3.16042969 8.49574219 3.13335937 9.30398437 3.10546875 10.13671875 C3.07066406 10.75160156 3.03585938 11.36648437 3 12 C1.68 12 0.36 12 -1 12 C-1 12.66 -1 13.32 -1 14 C-2.32 13.67 -3.64 13.34 -5 13 C-5 12.01 -5 11.02 -5 10 C-3.02 10 -1.04 10 1 10 C0.649375 8.906875 0.29875 7.81375 -0.0625 6.6875 C-1 3 -1 3 0 0 Z " fill="#C2514E" transform="translate(122,69)"/>
<path d="M0 0 C2.32650593 3.4897589 2.43992419 5.61234026 2.875 9.75 C3.61329227 15.56030014 4.8150197 19.16761609 8 24 C7.67 24.66 7.34 25.32 7 26 C1.90144311 19.88173174 0.68608092 16.06590817 0.375 8.25 C0.33632812 7.45722656 0.29765625 6.66445312 0.2578125 5.84765625 C0.163892 3.89880584 0.08087178 1.94943549 0 0 Z " fill="#B37573" transform="translate(144,66)"/>
<path d="M0 0 C0.3958132 4.48588289 -0.98475702 7.05713329 -3 11 C-2.67 11.66 -2.34 12.32 -2 13 C-2.99 14.485 -2.99 14.485 -4 16 C-4.66 15.67 -5.32 15.34 -6 15 C-5.65084746 4.87457627 -5.65084746 4.87457627 -3 1.3125 C-1 0 -1 0 0 0 Z " fill="#52534F" transform="translate(143,231)"/>
<path d="M0 0 C-0.73605469 0.38671875 -1.47210938 0.7734375 -2.23046875 1.171875 C-7.18734555 3.81728878 -11.64297184 6.43515877 -16 10 C-18.3125 10.75 -18.3125 10.75 -20 11 C-20 10.34 -20 9.68 -20 9 C-19.01 9 -18.02 9 -17 9 C-17 8.34 -17 7.68 -17 7 C-12.07935458 2.50670592 -6.8095374 -1.95988787 0 0 Z " fill="#D86833" transform="translate(93,139)"/>
<path d="M0 0 C2.42788318 3.64182478 2.92100249 7.08492309 3.625 11.3125 C3.7590625 12.05951172 3.893125 12.80652344 4.03125 13.57617188 C4.75254051 17.76775295 5.14937061 21.72935844 5 26 C4.34 25.67 3.68 25.34 3 25 C2.62109375 22.96875 2.62109375 22.96875 2.4375 20.5 C2.4207737 17.45018475 2.4207737 17.45018475 1 15 C0.06880211 9.9301448 -0.08997924 5.12881696 0 0 Z " fill="#AE3938" transform="translate(112,12)"/>
<path d="M0 0 C0.33 0 0.66 0 1 0 C1.05429959 1.74965358 1.09292823 3.49979787 1.125 5.25 C1.14820312 6.22453125 1.17140625 7.1990625 1.1953125 8.203125 C0.99862781 11.0196498 0.44568916 12.60949036 -1 15 C-1.99 15 -2.98 15 -4 15 C-3.67 12.69 -3.34 10.38 -3 8 C-2.34 8 -1.68 8 -1 8 C-0.67 5.36 -0.34 2.72 0 0 Z " fill="#4A4945" transform="translate(126,241)"/>
<path d="M0 0 C0.66 0.66 1.32 1.32 2 2 C1.9765625 4.6015625 1.9765625 4.6015625 1.625 7.625 C1.51414063 8.62789062 1.40328125 9.63078125 1.2890625 10.6640625 C1.19367188 11.43492188 1.09828125 12.20578125 1 13 C0.01 13 -0.98 13 -2 13 C-2.33 13.66 -2.66 14.32 -3 15 C-3.25 9.375 -3.25 9.375 -1 6 C-0.60986284 4.0103005 -0.26797351 2.00980131 0 0 Z " fill="#E64C4B" transform="translate(135,14)"/>
<path d="M0 0 C0.33 0.66 0.66 1.32 1 2 C1.99 2.33 2.98 2.66 4 3 C4 5.97 4 8.94 4 12 C2.68 12 1.36 12 0 12 C0 8.04 0 4.08 0 0 Z " fill="#838079" transform="translate(131,244)"/>
<path d="M0 0 C1.67542976 0.28604898 3.34385343 0.61781233 5 1 C4.67 2.65 4.34 4.3 4 6 C2.02 6 0.04 6 -2 6 C-1.125 1.125 -1.125 1.125 0 0 Z " fill="#838079" transform="translate(130,235)"/>
<path d="M0 0 C1.8125 0.1875 1.8125 0.1875 4 1 C5.75 3.5625 5.75 3.5625 7 6 C6.01 7.485 6.01 7.485 5 9 C5 8.34 5 7.68 5 7 C4.01 7 3.02 7 2 7 C2 6.34 2 5.68 2 5 C0.68 4.67 -0.64 4.34 -2 4 C-1.34 2.68 -0.68 1.36 0 0 Z " fill="#CF4F4D" transform="translate(135,43)"/>
<path d="M0 0 C0.66 0.33 1.32 0.66 2 1 C2.1953125 7.0546875 2.1953125 7.0546875 2 9 C1.34 9.66 0.68 10.32 0 11 C0 10.01 0 9.02 0 8 C-0.99 7.67 -1.98 7.34 -3 7 C-3.33 6.34 -3.66 5.68 -4 5 C-4.99 4.34 -5.98 3.68 -7 3 C-5.02 3 -3.04 3 -1 3 C-0.67 2.01 -0.34 1.02 0 0 Z " fill="#A15F5E" transform="translate(150,91)"/>
<path d="M0 0 C2.00720923 0.28674418 4.0085944 0.61866701 6 1 C6 1.33 6 1.66 6 2 C5.05125 2.28875 4.1025 2.5775 3.125 2.875 C-0.29061694 4.1046221 -1.44299081 4.94787154 -3.125 8.125 C-3.41375 8.74375 -3.7025 9.3625 -4 10 C-5.5 8.6875 -5.5 8.6875 -7 7 C-7 6.01 -7 5.02 -7 4 C-6.030625 3.525625 -5.06125 3.05125 -4.0625 2.5625 C-1.19522563 1.29806053 -1.19522563 1.29806053 0 0 Z " fill="#703636" transform="translate(89,93)"/>
<path d="M0 0 C-0.875 3.875 -0.875 3.875 -2 5 C-3.66617115 5.04063832 -5.33388095 5.042721 -7 5 C-7 3.35 -7 1.7 -7 0 C-4.3333581 -1.33332095 -2.83319697 -0.67102033 0 0 Z " fill="#AF2B2A" transform="translate(141,37)"/>
<path d="M0 0 C0 0.33 0 0.66 0 1 C-1.3303125 1.433125 -1.3303125 1.433125 -2.6875 1.875 C-4.7285224 2.56817742 -6.75496483 3.30884925 -8.75 4.125 C-11 5 -11 5 -13 5 C-14.66965451 5.31802943 -16.33678518 5.64984951 -18 6 C-11.91849859 0.78728451 -7.82135415 -0.26513065 0 0 Z " fill="#B25122" transform="translate(104,129)"/>
<path d="M0 0 C1.32 0 2.64 0 4 0 C4.33 2.31 4.66 4.62 5 7 C2.83125748 6.49396008 1.00032373 6.00016187 -1 5 C-0.67 3.35 -0.34 1.7 0 0 Z " fill="#D36663" transform="translate(101,14)"/>
<path d="M0 0 C0.33 0 0.66 0 1 0 C1.144375 1.051875 1.28875 2.10375 1.4375 3.1875 C1.76144704 5.38314104 2.11773857 7.57561077 2.5625 9.75 C3 12 3 12 3 15 C1.35 15 -0.3 15 -2 15 C-1.34 10.05 -0.68 5.1 0 0 Z " fill="#5E5E58" transform="translate(127,241)"/>
<path d="M0 0 C2.475 0.495 2.475 0.495 5 1 C3.68 1.33 2.36 1.66 1 2 C1.7734375 2.99 1.7734375 2.99 2.5625 4 C4.54941167 8.14659826 3.83335149 10.53020565 3 15 C-0.25195722 10.12206417 -0.11325659 5.77608621 0 0 Z " fill="#6E6B64" transform="translate(128,241)"/>
<path d="M0 0 C0 0.99 0 1.98 0 3 C-1.26418246 3.69965443 -2.53665402 4.38434763 -3.8125 5.0625 C-4.52019531 5.44535156 -5.22789063 5.82820312 -5.95703125 6.22265625 C-8 7 -8 7 -11 6 C-5.30769231 0 -5.30769231 0 0 0 Z " fill="#F79971" transform="translate(78,153)"/>
<path d="M0 0 C0.33 0 0.66 0 1 0 C0.67 5.61 0.34 11.22 0 17 C-0.66 17 -1.32 17 -2 17 C-2.33 13.7 -2.66 10.4 -3 7 C-2.34 6.67 -1.68 6.34 -1 6 C-0.34227572 2.97065509 -0.34227572 2.97065509 0 0 Z " fill="#B13A39" transform="translate(126,20)"/>
<path d="M0 0 C0.66 0.33 1.32 0.66 2 1 C1.21625 1.598125 0.4325 2.19625 -0.375 2.8125 C-3.14574323 4.91085249 -3.14574323 4.91085249 -5 8 C-5.99 8 -6.98 8 -8 8 C-7.3125 5.625 -7.3125 5.625 -6 3 C-3.4375 1.75 -3.4375 1.75 -1 1 C-0.67 0.67 -0.34 0.34 0 0 Z M-10 8 C-9.34 8.33 -8.68 8.66 -8 9 C-9.98 9.99 -9.98 9.99 -12 11 C-11.34 10.01 -10.68 9.02 -10 8 Z " fill="#CA5E2A" transform="translate(92,132)"/>
<path d="M0 0 C0.33 0 0.66 0 1 0 C1.12375 1.03125 1.2475 2.0625 1.375 3.125 C1.87198212 6.93929409 1.87198212 6.93929409 3.125 10.1875 C4.01802669 13.05794292 4.05900963 14.24657496 3 17 C-0.8516972 11.63096754 -1.33087188 8.46015032 -0.359375 1.94140625 C-0.24078125 1.30074219 -0.1221875 0.66007812 0 0 Z " fill="#9E292A" transform="translate(112,20)"/>
<path d="M0 0 C0.33 1.32 0.66 2.64 1 4 C0.34 4 -0.32 4 -1 4 C-1.33 4.66 -1.66 5.32 -2 6 C-3.32 6 -4.64 6 -6 6 C-6 4.35 -6 2.7 -6 1 C-4 0 -4 0 0 0 Z " fill="#CF6967" transform="translate(119,0)"/>
<path d="M0 0 C0.33 0 0.66 0 1 0 C1 2.31 1 4.62 1 7 C2.32 6.34 3.64 5.68 5 5 C5 6.98 5 8.96 5 11 C3.35 11 1.7 11 0 11 C0 7.37 0 3.74 0 0 Z " fill="#73716A" transform="translate(135,245)"/>
<path d="M0 0 C0.66 0 1.32 0 2 0 C3.05699482 5.28497409 3.05699482 5.28497409 3 8 C1.0625 10.5 1.0625 10.5 -1 12 C-1.14285714 3.42857143 -1.14285714 3.42857143 0 0 Z " fill="#6A1B1F" transform="translate(91,16)"/>
<path d="M0 0 C0.33 0 0.66 0 1 0 C1 1.65 1 3.3 1 5 C1.66 5 2.32 5 3 5 C3 8.3 3 11.6 3 15 C2.34 15 1.68 15 1 15 C0.63807496 12.87630763 0.28568253 10.7509887 -0.0625 8.625 C-0.25972656 7.44164062 -0.45695312 6.25828125 -0.66015625 5.0390625 C-1 2 -1 2 0 0 Z " fill="#861B1C" transform="translate(109,15)"/>
<path d="M0 0 C0.845625 0.144375 1.69125 0.28875 2.5625 0.4375 C6.03593149 1.0058797 9.51445662 1.51202393 13 2 C13 3.32 13 4.64 13 6 C3.40546697 3.10933941 3.40546697 3.10933941 0 0 Z " fill="#94654E" transform="translate(70,174)"/>
<path d="M0 0 C0.103125 0.639375 0.20625 1.27875 0.3125 1.9375 C0.539375 2.618125 0.76625 3.29875 1 4 C1.99 4.33 2.98 4.66 4 5 C4 6.98 4 8.96 4 11 C4.66 11 5.32 11 6 11 C6 12.98 6 14.96 6 17 C3.95780294 15.30820672 3.08206694 14.36272334 2.48828125 11.73828125 C2.43027344 10.93777344 2.37226562 10.13726562 2.3125 9.3125 C2.24675781 8.50425781 2.18101563 7.69601563 2.11328125 6.86328125 C2.07589844 6.24839844 2.03851563 5.63351563 2 5 C1.34 5 0.68 5 0 5 C0 3.35 0 1.7 0 0 Z " fill="#AB3737" transform="translate(97,14)"/>
<path d="M0 0 C1.98 0 3.96 0 6 0 C6.33 1.32 6.66 2.64 7 4 C3.98968256 4.93423645 3.13349732 5.04449911 0 4 C0 2.68 0 1.36 0 0 Z " fill="#E6837C" transform="translate(125,80)"/>
<path d="M0 0 C0.99 0 1.98 0 3 0 C2.67 1.32 2.34 2.64 2 4 C3.32 4.33 4.64 4.66 6 5 C6 5.66 6 6.32 6 7 C4.35 7.33 2.7 7.66 1 8 C-0.35439668 5.29120665 -0.06501451 2.99066732 0 0 Z " fill="#C3504D" transform="translate(143,35)"/>
<path d="M0 0 C-2.48517704 1.29229206 -4.97670251 2.41124316 -7.5625 3.5 C-11.03066797 4.89360094 -11.03066797 4.89360094 -14 7 C-13.42655063 4.13275314 -13.1385485 3.1385485 -11 1 C-7.30704038 -0.02582212 -3.81684076 -0.08876374 0 0 Z " fill="#251616" transform="translate(101,94)"/>
<path d="M0 0 C2.71372659 2.00579792 3.03939963 3.17275223 3.8125 6.5625 C3.874375 7.696875 3.93625 8.83125 4 10 C3.34 10.66 2.68 11.32 2 12 C0.40861915 7.82262526 -0.21278058 4.46839215 0 0 Z " fill="#A53534" transform="translate(105,36)"/>
<path d="M0 0 C0.33 0.66 0.66 1.32 1 2 C1.66 2 2.32 2 3 2 C2.67 2.99 2.34 3.98 2 5 C1.77202438 7.73289293 1.58331813 10.45042204 1.4375 13.1875 C1.39431641 13.93708984 1.35113281 14.68667969 1.30664062 15.45898438 C1.20077315 17.30578375 1.0999024 19.15286834 1 21 C0.67 21 0.34 21 0 21 C0 14.07 0 7.14 0 0 Z " fill="#0E1014" transform="translate(90,183)"/>
<path d="M0 0 C1.32 0.66 2.64 1.32 4 2 C3.67 2.66 3.34 3.32 3 4 C2.34 3.67 1.68 3.34 1 3 C1.061875 3.928125 1.12375 4.85625 1.1875 5.8125 C1 9 1 9 -0.5 10.875 C-1.2425 11.431875 -1.2425 11.431875 -2 12 C-1 3.42857143 -1 3.42857143 0 0 Z " fill="#D25858" transform="translate(134,11)"/>
<path d="M0 0 C0.66 0 1.32 0 2 0 C2.36552803 1.41377782 2.71695495 2.83120576 3.0625 4.25 C3.25972656 5.03890625 3.45695313 5.8278125 3.66015625 6.640625 C4.01497267 9.10394822 3.76877544 10.65604132 3 13 C-0.36055646 8.51925805 -0.27429625 5.39449293 0 0 Z " fill="#B16F6D" transform="translate(140,52)"/>
<path d="M0 0 C1.32 0 2.64 0 4 0 C4.33 2.97 4.66 5.94 5 9 C3 5 3 5 3 3 C2.34 3 1.68 3 1 3 C0.67 3.66 0.34 4.32 0 5 C-0.66 5 -1.32 5 -2 5 C-1.34 3.35 -0.68 1.7 0 0 Z " fill="#7C262B" transform="translate(103,2)"/>
<path d="M0 0 C0.99 0.33 1.98 0.66 3 1 C3.6953125 2.99609375 3.6953125 2.99609375 4.125 5.4375 C4.73123617 8.8273078 4.73123617 8.8273078 6 12 C5.01 11.67 4.02 11.34 3 11 C2.05078125 9.00390625 2.05078125 9.00390625 1.3125 6.5625 C1.06113281 5.75941406 0.80976562 4.95632812 0.55078125 4.12890625 C0 2 0 2 0 0 Z " fill="#B94544" transform="translate(107,37)"/>
<path d="M0 0 C0.99 0 1.98 0 3 0 C2.5020163 3.73487777 2.12508244 5.81237635 0 9 C-1.125 2.25 -1.125 2.25 0 0 Z " fill="#902223" transform="translate(123,11)"/>
<path d="M0 0 C0.66 0 1.32 0 2 0 C2.66 2.97 3.32 5.94 4 9 C3.01 9 2.02 9 1 9 C0.67 6.03 0.34 3.06 0 0 Z " fill="#535451" transform="translate(142,247)"/>
<path d="M0 0 C-0.3125 1.875 -0.3125 1.875 -1 4 C-1.99 4.66 -2.98 5.32 -4 6 C-5.19232613 8.05003955 -5.19232613 8.05003955 -6 10 C-6.25 6.6875 -6.25 6.6875 -6 3 C-3.96080228 0.89282902 -2.95416573 0 0 0 Z " fill="#73716B" transform="translate(133,231)"/>
<path d="M0 0 C2.5625 2.25 2.5625 2.25 5 5 C4.8125 7.3125 4.8125 7.3125 4 9 C1.47740939 7.02579865 1.0070192 6.03254358 0.3125 2.8125 C0.209375 1.884375 0.10625 0.95625 0 0 Z " fill="#CC6D3F" transform="translate(110,133)"/>
<path d="M0 0 C0.99 0 1.98 0 3 0 C2.67 2.31 2.34 4.62 2 7 C1.01 6.67 0.02 6.34 -1 6 C-1.042721 4.33388095 -1.04063832 2.66617115 -1 1 C-0.67 0.67 -0.34 0.34 0 0 Z " fill="#D86D68" transform="translate(127,72)"/>
<path d="M0 0 C1.32 0.33 2.64 0.66 4 1 C3.34 1 2.68 1 2 1 C2 2.65 2 4.3 2 6 C3.32 6.33 4.64 6.66 6 7 C4.02 7.99 4.02 7.99 2 9 C0.50178941 5.62902617 0 3.79557881 0 0 Z " fill="#C0504E" transform="translate(111,0)"/>
<path d="M0 0 C2.70931419 0.15481795 4.46584039 0.48172081 6.4453125 2.40234375 C7.67679642 3.89771708 8.8429837 5.4462924 10 7 C5.04303419 5.76075855 2.88341534 4.21422242 0 0 Z " fill="#9C715E" transform="translate(60,167)"/>
<path d="M0 0 C4.77576339 0.4682121 8.04476345 1.24331998 12 4 C8.52128379 5.15957207 7.65780355 4.77456651 4.3125 3.5625 C3.50425781 3.27503906 2.69601563 2.98757812 1.86328125 2.69140625 C1.24839844 2.46324219 0.63351563 2.23507813 0 2 C0 1.34 0 0.68 0 0 Z " fill="#3B211F" transform="translate(134,93)"/>
<path d="M0 0 C1.65 0 3.3 0 5 0 C5 1.32 5 2.64 5 4 C3.02 4 1.04 4 -1 4 C-0.34 3.67 0.32 3.34 1 3 C0.67 2.01 0.34 1.02 0 0 Z " fill="#E1736C" transform="translate(131,81)"/>
<path d="M0 0 C1.32 0.33 2.64 0.66 4 1 C4.33 2.32 4.66 3.64 5 5 C3.68 4.67 2.36 4.34 1 4 C0.67 2.68 0.34 1.36 0 0 Z " fill="#EB8B83" transform="translate(116,47)"/>
<path d="M0 0 C0.66 0.33 1.32 0.66 2 1 C2.625 3.0625 2.625 3.0625 3 5 C1.35 5.66 -0.3 6.32 -2 7 C-2 5.68 -2 4.36 -2 3 C-1.34 3 -0.68 3 0 3 C0 2.01 0 1.02 0 0 Z " fill="#5F141A" transform="translate(103,4)"/>
<path d="M0 0 C0.66 0 1.32 0 2 0 C2 0.66 2 1.32 2 2 C2.66 2 3.32 2 4 2 C3.67 3.65 3.34 5.3 3 7 C2.34 6.67 1.68 6.34 1 6 C0.375 2.9375 0.375 2.9375 0 0 Z " fill="#E54E4E" transform="translate(137,58)"/>
<path d="M0 0 C2.31 0 4.62 0 7 0 C7 1.65 7 3.3 7 5 C6.01 4.67 5.02 4.34 4 4 C3.67 3.34 3.34 2.68 3 2 C2.01 1.34 1.02 0.68 0 0 Z " fill="#A54040" transform="translate(143,94)"/>
<path d="M0 0 C2.64 0.33 5.28 0.66 8 1 C8.33 1.99 8.66 2.98 9 4 C5.17902761 3.46930939 2.93828597 2.50298434 0 0 Z " fill="#AE3E3C" transform="translate(134,90)"/>
<path d="M0 0 C0 1.98 0 3.96 0 6 C-1.65 4.35 -3.3 2.7 -5 1 C-2 0 -2 0 0 0 Z " fill="#79181A" transform="translate(109,11)"/>
</svg>
