<?xml version="1.0" standalone="no"?>
<!DOCTYPE svg PUBLIC "-//W3C//DTD SVG 20010904//EN"
 "http://www.w3.org/TR/2001/REC-SVG-20010904/DTD/svg10.dtd">
<svg version="1.0" xmlns="http://www.w3.org/2000/svg"
 width="860.000000pt" height="860.000000pt" viewBox="0 0 860.000000 860.000000"
 preserveAspectRatio="xMidYMid meet">
<metadata>
Created by potrace 1.14, written by Peter Selinger 2001-2017
</metadata>
<g transform="translate(0.000000,860.000000) scale(0.100000,-0.100000)"
fill="#000000" stroke="none">
<path d="M4002 8563 c-17 -19 -32 -40 -33 -46 -1 -22 -7 -49 -12 -53 -3 -3
-17 -7 -32 -10 -32 -6 -88 -61 -81 -80 3 -7 -2 -15 -9 -18 -17 -6 -12 -130 6
-152 6 -8 9 -14 6 -14 -3 0 1 -21 9 -47 27 -90 35 -187 17 -215 -8 -14 -9 -16
-18 -63 -3 -16 -10 -44 -14 -62 -6 -20 -5 -35 2 -42 7 -7 7 -11 1 -11 -9 0
-15 -49 -17 -137 0 -18 -5 -33 -11 -33 -16 0 -54 -49 -67 -87 -14 -44 -4 -107
17 -99 8 3 12 2 9 -3 -3 -5 -1 -12 4 -15 13 -8 11 -64 -4 -101 -14 -35 -10
-53 19 -80 12 -11 17 -17 12 -12 -20 14 -21 5 -18 -107 l4 -113 -46 -33 c-25
-19 -46 -38 -46 -43 0 -6 -3 -8 -6 -4 -3 3 -17 -5 -31 -19 -13 -13 -28 -24
-34 -24 -6 0 -7 -4 -4 -10 3 -5 2 -10 -4 -10 -11 0 -121 -104 -121 -115 0 -3
-7 -14 -16 -22 -11 -12 -14 -27 -10 -52 3 -20 7 -42 8 -48 1 -7 8 -13 15 -13
8 0 11 -4 8 -10 -3 -5 1 -10 9 -10 9 0 16 -4 16 -10 0 -5 6 -10 14 -10 8 0 16
-3 18 -8 2 -4 37 -22 78 -40 41 -19 84 -38 95 -43 11 -4 27 -10 35 -11 8 -2
21 -9 28 -16 8 -7 17 -10 21 -7 15 8 4 -397 -14 -539 -8 -58 -19 -141 -20
-146 -1 -3 -5 -23 -9 -45 -8 -37 -25 -106 -61 -240 -23 -84 -78 -237 -116
-322 -10 -24 -19 -48 -19 -55 0 -7 -7 -22 -15 -32 -8 -11 -15 -27 -15 -36 0
-9 -5 -21 -12 -28 -6 -6 -13 -17 -14 -24 -1 -7 -30 -71 -64 -143 -34 -71 -71
-150 -82 -175 -11 -25 -39 -85 -62 -135 -24 -49 -53 -116 -66 -149 -21 -52
-118 -186 -141 -194 -5 -2 -9 -8 -9 -14 0 -6 -16 -30 -35 -54 -19 -23 -35 -45
-35 -49 0 -3 -11 -22 -25 -42 -13 -20 -22 -40 -19 -45 3 -4 1 -8 -5 -8 -10 0
-60 -100 -76 -150 -4 -14 -11 -29 -15 -35 -9 -12 -76 -227 -84 -272 -2 -10 -8
-31 -12 -48 -4 -16 -8 -41 -10 -55 -1 -14 -3 -25 -4 -25 -1 0 -3 -13 -5 -30
-3 -16 -11 -73 -19 -125 -11 -72 -14 -166 -12 -385 2 -159 6 -306 9 -325 7
-40 14 -85 23 -150 36 -271 164 -676 242 -765 56 -63 113 -79 177 -49 35 16
85 79 85 106 0 7 5 20 10 28 7 12 17 8 52 -26 24 -23 55 -52 69 -65 44 -41
143 -106 215 -142 69 -35 211 -87 236 -87 39 -1 41 -11 44 -242 6 -463 5 -574
-2 -593 -16 -41 -79 -69 -188 -80 -34 -4 -74 -9 -91 -11 -33 -4 -102 -13 -153
-19 -18 -2 -40 -9 -48 -16 -11 -9 -14 -9 -14 1 0 8 -3 11 -6 8 -3 -4 -1 -15 5
-25 8 -15 7 -20 -4 -20 -8 0 -12 3 -10 7 2 3 -5 12 -16 18 -19 12 -19 11 -9
-8 6 -12 9 -24 6 -28 -3 -3 -6 -1 -6 4 0 5 -9 10 -19 11 -15 1 -18 -3 -14 -15
6 -14 5 -15 -9 -2 -15 13 -15 17 -2 26 8 6 14 15 14 19 0 5 -9 0 -20 -10 -14
-12 -17 -22 -10 -30 7 -8 5 -12 -5 -12 -14 0 -19 11 -16 30 1 5 -3 6 -9 2 -6
-3 -8 -11 -5 -16 4 -5 1 -9 -6 -9 -8 0 -7 -5 2 -17 13 -16 12 -17 -3 -5 -13
10 -17 10 -22 0 -3 -7 -4 -2 -2 12 2 14 1 19 -1 12 -4 -11 -8 -11 -21 0 -15
12 -16 11 -4 -4 15 -19 7 -42 -10 -32 -6 4 -8 -2 -4 -17 l6 -24 -11 23 c-12
23 -29 30 -29 12 0 -5 5 -10 10 -10 14 0 13 -27 -2 -36 -6 -4 -8 -3 -5 3 4 6
-1 17 -11 24 -15 12 -16 12 -6 -1 6 -8 10 -23 9 -33 -2 -9 1 -15 6 -11 5 3 9
1 9 -5 0 -5 -6 -12 -12 -14 -8 -3 -5 -6 5 -6 10 -1 15 -6 12 -11 -4 -6 -11 -7
-17 -4 -6 4 -8 2 -4 -4 3 -6 15 -9 26 -7 11 2 20 -1 20 -7 0 -6 7 -5 17 3 9 8
14 9 10 3 -7 -12 17 -19 103 -29 25 -3 92 -13 150 -21 109 -17 277 -25 343
-17 30 4 35 8 27 19 -10 10 -7 11 14 1 29 -13 34 -27 11 -27 -21 0 -19 -20 3
-21 9 0 26 -2 37 -5 11 -2 47 -6 80 -9 33 -3 83 -8 110 -10 28 -3 75 -8 105
-11 30 -3 66 -7 80 -9 84 -14 257 -20 570 -18 320 2 356 4 367 19 8 11 9 23 3
34 -5 10 -6 20 -3 24 3 3 1 6 -6 6 -7 0 -9 4 -6 10 7 11 -60 82 -69 73 -3 -4
-6 -2 -6 4 0 8 -40 33 -60 38 -3 0 -24 11 -46 23 -23 11 -44 18 -48 15 -3 -4
-6 -2 -6 3 0 6 -22 18 -50 28 -27 10 -50 22 -50 28 0 5 -3 7 -7 5 -5 -3 -30
11 -58 29 -27 19 -46 34 -42 34 3 0 -2 16 -13 35 -11 19 -16 35 -12 35 10 0 9
31 -2 48 -4 7 -2 12 5 12 10 0 10 3 2 11 -6 6 -8 22 -4 38 7 27 7 164 -3 564
-2 125 -1 225 4 222 4 -3 10 0 12 5 2 6 13 12 26 13 12 0 22 5 22 9 0 4 3 7 8
6 4 -1 21 6 39 15 18 9 39 17 48 17 8 0 15 4 15 8 0 5 18 17 40 27 22 10 40
21 40 24 0 4 15 15 33 25 17 11 74 61 124 112 51 52 94 94 97 94 2 0 6 -10 9
-22 29 -129 74 -235 115 -273 30 -28 95 -34 135 -14 31 15 75 67 99 113 21 41
68 160 73 186 10 48 19 76 28 88 5 6 7 12 4 12 -3 0 -1 17 4 38 17 67 19 77
25 107 3 17 10 50 15 75 6 25 12 63 15 85 3 22 7 51 10 63 3 13 7 43 10 65 3
23 7 52 9 63 5 24 14 107 21 205 7 83 7 458 1 531 -8 93 -21 189 -33 238 -3
14 -8 41 -10 60 -3 19 -9 46 -14 60 -4 14 -12 39 -16 55 -4 17 -8 32 -9 35 -1
3 -5 21 -9 40 -5 19 -13 46 -19 60 -6 14 -11 27 -11 30 -8 39 -109 263 -159
349 -83 146 -155 237 -317 400 -94 96 -117 125 -153 199 -23 48 -44 89 -47 92
-13 13 -222 444 -224 462 -1 4 -7 13 -13 19 -7 7 -13 20 -13 29 0 9 -4 20 -8
25 -5 6 -28 60 -51 120 -24 61 -47 119 -51 130 -17 39 -70 223 -70 242 0 10
-5 24 -12 31 -7 7 -9 12 -6 12 3 0 1 21 -4 48 -20 101 -31 175 -44 302 -7 65
-9 875 -2 1043 2 48 0 87 -4 87 -4 0 -3 11 2 24 5 13 7 26 5 27 -7 8 -13 129
-6 124 15 -9 28 40 25 90 -5 70 -6 75 -17 75 -6 0 -7 3 -4 6 4 4 -3 15 -15 25
-11 11 -17 19 -13 19 5 0 1 6 -10 13 -13 10 -15 16 -6 21 6 4 9 11 6 16 -3 4
-7 38 -10 75 -3 37 -9 73 -14 79 -4 6 -7 21 -6 34 1 12 -1 22 -5 22 -4 0 -14
18 -23 40 -9 23 -11 37 -5 33 8 -4 9 0 5 11 -8 21 9 56 26 56 18 0 64 49 75
80 10 26 -1 76 -21 95 -7 7 -8 6 -3 -2 3 -6 2 -15 -4 -18 -6 -4 -10 -3 -9 2 4
22 -3 32 -31 43 -23 10 -33 10 -45 0 -8 -6 -19 -9 -24 -6 -5 4 -12 2 -16 -4
-11 -18 -22 -11 -20 13 1 12 3 22 4 22 2 0 4 7 6 15 1 8 9 38 17 65 13 44 15
77 9 148 0 9 -6 17 -12 17 -7 0 -20 10 -30 22 -13 14 -19 16 -19 7 0 -11 -2
-11 -8 -2 -14 21 -56 18 -91 -6 -35 -25 -41 -24 -44 8 -1 11 -4 21 -7 21 -3 0
-6 8 -7 18 -1 9 -4 26 -6 37 -3 11 -6 22 -7 25 0 3 -10 -6 -20 -19 -11 -13
-20 -18 -20 -13 0 6 5 14 11 17 24 16 -1 29 -57 31 -56 2 -61 0 -92 -33z
m-142 -237 c0 -2 -8 -10 -17 -17 -16 -13 -17 -12 -4 4 13 16 21 21 21 13z
m-326 -3542 c3 -8 2 -12 -4 -9 -6 3 -10 10 -10 16 0 14 7 11 14 -7z m-9 -24
c3 -5 1 -10 -4 -10 -6 0 -11 5 -11 10 0 6 2 10 4 10 3 0 8 -4 11 -10z m-21
-26 c3 -8 2 -12 -4 -9 -6 3 -10 10 -10 16 0 14 7 11 14 -7z m-43 -57 c-10 -9
-11 -8 -5 6 3 10 9 15 12 12 3 -3 0 -11 -7 -18z m64 -5 c-3 -3 -11 0 -18 7 -9
10 -8 11 6 5 10 -3 15 -9 12 -12z m-78 -56 c-3 -8 -1 -16 6 -19 7 -2 5 -6 -4
-9 -11 -4 -15 1 -15 18 0 13 4 24 9 24 5 0 7 -6 4 -14z m18 -65 c3 -5 2 -12
-3 -15 -5 -3 -9 1 -9 9 0 17 3 19 12 6z m-45 -5 c0 -2 -8 -10 -17 -17 -16 -13
-17 -12 -4 4 13 16 21 21 21 13z m-20 -62 c0 -8 -19 -13 -24 -6 -3 5 1 9 9 9
8 0 15 -2 15 -3z m30 -39 c14 -19 14 -19 -2 -6 -10 7 -18 18 -18 24 0 6 1 8 3
6 1 -2 9 -13 17 -24z m-80 -25 c0 -5 -2 -10 -4 -10 -3 0 -8 5 -11 10 -3 6 -1
10 4 10 6 0 11 -4 11 -10z m-90 -154 c0 -2 -8 -10 -17 -17 -16 -13 -17 -12 -4
4 13 16 21 21 21 13z m-10 -62 c0 -8 -19 -13 -24 -6 -3 5 1 9 9 9 8 0 15 -2
15 -3z m1235 -3041 c3 -120 8 -674 6 -713 -1 -14 -11 -37 -24 -51 -22 -26 -87
-65 -87 -53 0 4 -6 2 -12 -4 -11 -9 -75 -29 -103 -33 -5 0 -18 -5 -27 -10 -16
-9 -28 0 -35 26 -20 77 -25 136 -29 340 -8 439 -9 605 -4 606 3 0 67 2 143 4
77 2 142 6 145 9 16 17 25 -23 27 -121z m-1015 -797 c10 -13 7 -14 -16 -10
-25 5 -26 4 -13 -13 13 -17 13 -17 -4 -4 -18 14 -18 16 -1 28 22 16 19 16 34
-1z"/>
<path d="M3190 306 c0 -2 7 -7 16 -10 8 -3 12 -2 9 4 -6 10 -25 14 -25 6z"/>
</g>
</svg>
