<?xml version="1.0" standalone="no"?>
<!DOCTYPE svg PUBLIC "-//W3C//DTD SVG 20010904//EN"
 "http://www.w3.org/TR/2001/REC-SVG-20010904/DTD/svg10.dtd">
<svg version="1.0" xmlns="http://www.w3.org/2000/svg"
 width="302.000000pt" height="302.000000pt" viewBox="0 0 302.000000 302.000000"
 preserveAspectRatio="xMidYMid meet">
<metadata>
Created by potrace 1.14, written by Peter Selinger 2001-2017
</metadata>
<g transform="translate(0.000000,302.000000) scale(0.100000,-0.100000)"
fill="#000000" stroke="none">
<path d="M1262 3007 c-14 -16 -52 -104 -47 -109 2 -2 -9 -4 -24 -4 -30 -2 -73
-32 -65 -46 3 -4 -1 -8 -9 -8 -20 0 -28 -25 -14 -40 8 -9 9 -11 1 -7 -32 18
-23 -108 14 -213 6 -17 8 -27 21 -94 7 -40 5 -66 -15 -145 -13 -53 -27 -139
-30 -191 -4 -52 -7 -100 -8 -107 -1 -6 -16 -24 -33 -40 -34 -32 -58 -101 -48
-140 3 -13 14 -32 25 -43 23 -23 24 -49 6 -100 -13 -36 -4 -90 16 -90 5 0 6
-5 2 -11 -3 -6 -6 -60 -6 -120 0 -60 -4 -109 -9 -109 -9 0 -26 -13 -88 -67
-20 -18 -39 -33 -43 -33 -10 0 -128 -117 -156 -154 -12 -16 -22 -40 -22 -55 0
-34 23 -77 39 -73 7 1 10 -2 7 -6 -3 -5 4 -18 15 -28 12 -11 22 -17 23 -16 0
2 35 -12 76 -31 109 -51 171 -77 186 -77 10 0 12 -37 9 -184 -2 -102 -7 -215
-11 -253 -4 -37 -8 -79 -9 -93 -3 -28 -18 -152 -20 -160 -1 -3 -7 -32 -14 -65
-7 -33 -15 -68 -17 -77 -5 -17 20 -18 434 -18 241 0 442 3 445 6 3 4 2 15 -4
26 -6 11 -12 29 -15 41 -2 12 -6 33 -9 47 -4 14 -8 36 -11 50 -3 14 -7 33 -10
43 -3 10 -8 35 -10 55 -2 20 -6 48 -9 62 -13 64 -26 214 -30 345 -9 266 -2
755 10 775 5 9 4 11 -4 6 -8 -6 -10 0 -5 18 9 38 11 106 3 144 -4 17 -4 34 0
36 4 3 6 20 4 38 -9 80 -6 131 7 123 11 -7 12 -2 15 65 3 52 -6 81 -40 130
-17 24 -24 49 -24 80 1 45 -6 92 -18 120 -3 8 -7 24 -8 35 -1 11 -10 37 -19
58 -9 20 -13 37 -9 37 5 0 1 5 -7 10 -8 5 -10 10 -4 10 7 0 9 11 6 26 -3 16
-1 25 5 21 5 -3 28 11 51 31 48 42 69 94 47 116 -8 7 -12 16 -9 19 10 10 -62
57 -82 53 -40 -8 -49 -11 -54 -18 -3 -4 -11 -4 -17 0 -11 7 -6 37 26 140 5 17
7 32 4 32 -3 0 0 7 7 15 7 8 8 15 4 15 -5 0 -10 14 -10 31 -1 20 -11 40 -28
56 -14 13 -26 20 -26 16 0 -4 -5 -1 -10 8 -5 9 -19 15 -32 13 -13 -1 -28 -3
-35 -3 -6 -1 -19 -8 -27 -17 -9 -8 -24 -17 -34 -19 -14 -2 -18 3 -16 26 1 16
-2 29 -6 29 -5 0 -7 8 -5 18 5 35 -29 52 -108 52 -49 0 -78 -4 -85 -13z m148
-27 c0 -5 -5 -10 -11 -10 -5 0 -7 5 -4 10 3 6 8 10 11 10 2 0 4 -4 4 -10z
m-289 -1307 c13 -16 12 -17 -3 -4 -17 13 -22 21 -14 21 2 0 10 -8 17 -17z m43
-1011 c3 -5 -1 -9 -9 -9 -8 0 -12 4 -9 9 3 4 7 8 9 8 2 0 6 -4 9 -8z"/>
</g>
</svg>
