<?xml version="1.0" standalone="no"?>
<!DOCTYPE svg PUBLIC "-//W3C//DTD SVG 20010904//EN"
 "http://www.w3.org/TR/2001/REC-SVG-20010904/DTD/svg10.dtd">
<svg version="1.0" xmlns="http://www.w3.org/2000/svg"
 width="315.000000pt" height="315.000000pt" viewBox="0 0 315.000000 315.000000"
 preserveAspectRatio="xMidYMid meet">
<metadata>
Created by potrace 1.14, written by Peter Selinger 2001-2017
</metadata>
<g transform="translate(0.000000,315.000000) scale(0.100000,-0.100000)"
fill="#000000" stroke="none">
<path d="M1554 3113 c-30 -30 -39 -50 -36 -75 2 -10 -28 -32 -49 -35 -39 -6
-85 -67 -94 -125 -3 -20 1 -62 9 -94 8 -33 22 -88 31 -124 21 -87 22 -145 2
-205 -24 -73 -33 -133 -39 -265 -2 -43 -7 -57 -23 -65 -31 -17 -63 -82 -61
-129 0 -26 5 -40 13 -39 7 2 10 -4 7 -12 -4 -8 1 -17 10 -21 20 -8 21 -44 2
-88 -11 -26 -11 -39 -2 -68 7 -19 14 -83 15 -142 l2 -107 -31 -29 c-18 -17
-36 -30 -41 -30 -4 0 -13 -8 -18 -17 -6 -10 -11 -15 -11 -11 0 14 -179 -157
-203 -194 -9 -15 -17 -38 -17 -50 0 -31 24 -74 38 -70 7 1 11 -3 10 -10 -2 -6
7 -16 18 -23 12 -6 28 -15 35 -21 13 -9 87 -44 164 -75 33 -13 40 -16 54 -18
5 0 16 -8 24 -16 12 -12 14 -45 12 -187 -4 -166 -11 -294 -20 -349 -3 -14 -7
-43 -10 -65 -11 -92 -53 -291 -71 -337 -6 -16 26 -17 471 -17 450 0 477 1 470
18 -4 9 -8 22 -9 27 -2 6 -9 30 -16 55 -8 25 -14 48 -16 53 -1 4 -2 8 -4 10
-2 3 -3 9 -28 132 -12 55 -23 118 -26 140 -3 22 -7 49 -10 61 -9 42 -29 411
-26 484 1 32 -1 66 -4 85 -2 11 -1 24 2 29 7 13 17 759 10 782 -1 5 4 25 11
44 29 73 17 155 -28 205 -13 13 -19 37 -20 70 -3 81 -31 206 -52 231 -6 7 -8
17 -5 23 3 5 0 12 -6 14 -10 4 -10 6 0 6 7 1 10 5 7 11 -8 13 13 50 28 50 19
0 70 56 74 80 1 10 4 23 4 27 6 23 -52 99 -65 86 -3 -4 -6 -1 -6 6 0 12 -28
10 -72 -8 -16 -6 -28 -7 -29 -3 0 4 -2 15 -4 25 -2 9 2 17 8 17 5 0 7 3 4 7
-4 3 -2 12 4 20 6 7 9 13 6 13 -3 0 -1 15 5 33 14 43 19 135 7 143 -5 3 -7 9
-5 13 3 4 -4 13 -16 20 -16 10 -19 10 -13 -1 4 -7 -2 -3 -12 8 -27 32 -68 35
-107 9 -36 -25 -52 -21 -53 10 0 35 -15 80 -32 95 -10 9 -38 16 -75 17 -54 1
-60 -1 -92 -34z m143 -16 c0 -8 -6 -14 -14 -14 -9 0 -10 4 -2 14 6 7 12 13 14
13 1 0 2 -6 2 -13z m-242 -2367 c3 -6 -1 -7 -9 -4 -18 7 -21 14 -7 14 6 0 13
-4 16 -10z"/>
</g>
</svg>
